<svg width="6541" height="3415" xmlns="http://www.w3.org/2000/svg" xmlns:xlink="http://www.w3.org/1999/xlink" xml:space="preserve" overflow="hidden"><defs><clipPath id="clip0"><rect x="1246" y="925" width="6541" height="3415"/></clipPath></defs><g clip-path="url(#clip0)" transform="translate(-1246 -925)"><path d="M6540.5 1734.5 7576.33 1734.5 7783.5 1941.67 7783.5 3265.5 6540.5 3265.5Z" stroke="#00695C" stroke-width="3.4375" stroke-linecap="butt" stroke-linejoin="round" stroke-miterlimit="10" stroke-opacity="1" fill="#F3F3F3" fill-rule="evenodd" fill-opacity="1"/><text fill="#000000" fill-opacity="1" font-family="Arial,Arial_MSFontService,sans-serif" font-style="normal" font-variant="normal" font-weight="400" font-stretch="normal" font-size="110" text-anchor="start" direction="ltr" writing-mode="lr-tb" unicode-bidi="normal" text-decoration="none" transform="matrix(1 0 0 1 6556.91 1933)">&lt;&lt;</text><text fill="#000000" fill-opacity="1" font-family="MS Gothic,MS Gothic_MSFontService,sans-serif" font-style="normal" font-variant="normal" font-weight="400" font-stretch="normal" font-size="110" text-anchor="start" direction="ltr" writing-mode="lr-tb" unicode-bidi="normal" text-decoration="none" transform="translate(6685.25 1933)">検査・問診</text><text fill="#000000" fill-opacity="1" font-family="MS Gothic,MS Gothic_MSFontService,sans-serif" font-style="normal" font-variant="normal" font-weight="400" font-stretch="normal" font-size="110" text-anchor="start" direction="ltr" writing-mode="lr-tb" unicode-bidi="normal" text-decoration="none" transform="translate(7235.25 1933)">データ</text><text fill="#000000" fill-opacity="1" font-family="Arial,Arial_MSFontService,sans-serif" font-style="normal" font-variant="normal" font-weight="400" font-stretch="normal" font-size="110" text-anchor="start" direction="ltr" writing-mode="lr-tb" unicode-bidi="normal" text-decoration="none" transform="matrix(1 0 0 1 6556.91 2064)">&gt;&gt;</text><text fill="#000000" fill-opacity="1" font-family="MS Gothic,MS Gothic_MSFontService,sans-serif" font-style="normal" font-variant="normal" font-weight="400" font-stretch="normal" font-size="110" text-anchor="start" direction="ltr" writing-mode="lr-tb" unicode-bidi="normal" text-decoration="none" transform="translate(6556.91 2197)">誕生日</text><text fill="#000000" fill-opacity="1" font-family="MS Gothic,MS Gothic_MSFontService,sans-serif" font-style="normal" font-variant="normal" font-weight="400" font-stretch="normal" font-size="110" text-anchor="start" direction="ltr" writing-mode="lr-tb" unicode-bidi="normal" text-decoration="none" transform="translate(6556.91 2329)">身長</text><text fill="#000000" fill-opacity="1" font-family="MS Gothic,MS Gothic_MSFontService,sans-serif" font-style="normal" font-variant="normal" font-weight="400" font-stretch="normal" font-size="110" text-anchor="start" direction="ltr" writing-mode="lr-tb" unicode-bidi="normal" text-decoration="none" transform="translate(6556.91 2461)">体重</text><text fill="#000000" fill-opacity="1" font-family="MS Gothic,MS Gothic_MSFontService,sans-serif" font-style="normal" font-variant="normal" font-weight="400" font-stretch="normal" font-size="110" text-anchor="start" direction="ltr" writing-mode="lr-tb" unicode-bidi="normal" text-decoration="none" transform="translate(6556.91 2593)">血液</text><text fill="#000000" fill-opacity="1" font-family="MS Gothic,MS Gothic_MSFontService,sans-serif" font-style="normal" font-variant="normal" font-weight="400" font-stretch="normal" font-size="110" text-anchor="start" direction="ltr" writing-mode="lr-tb" unicode-bidi="normal" text-decoration="none" transform="translate(6556.91 2725)">血圧</text><text fill="#000000" fill-opacity="1" font-family="MS Gothic,MS Gothic_MSFontService,sans-serif" font-style="normal" font-variant="normal" font-weight="400" font-stretch="normal" font-size="110" text-anchor="start" direction="ltr" writing-mode="lr-tb" unicode-bidi="normal" text-decoration="none" transform="translate(6556.91 2857)">投与薬剤</text><text fill="#000000" fill-opacity="1" font-family="MS Gothic,MS Gothic_MSFontService,sans-serif" font-style="normal" font-variant="normal" font-weight="400" font-stretch="normal" font-size="110" text-anchor="start" direction="ltr" writing-mode="lr-tb" unicode-bidi="normal" text-decoration="none" transform="translate(6556.91 2989)">意識</text><text fill="#000000" fill-opacity="1" font-family="MS Gothic,MS Gothic_MSFontService,sans-serif" font-style="normal" font-variant="normal" font-weight="400" font-stretch="normal" font-size="110" text-anchor="start" direction="ltr" writing-mode="lr-tb" unicode-bidi="normal" text-decoration="none" transform="translate(6776.91 2989)">レベル</text><text fill="#000000" fill-opacity="1" font-family="MS Gothic,MS Gothic_MSFontService,sans-serif" font-style="normal" font-variant="normal" font-weight="400" font-stretch="normal" font-size="110" text-anchor="start" direction="ltr" writing-mode="lr-tb" unicode-bidi="normal" text-decoration="none" transform="translate(6556.91 3121)">心拍数</text><text fill="#000000" fill-opacity="1" font-family="MS Gothic,MS Gothic_MSFontService,sans-serif" font-style="normal" font-variant="normal" font-weight="400" font-stretch="normal" font-size="110" text-anchor="start" direction="ltr" writing-mode="lr-tb" unicode-bidi="normal" text-decoration="none" transform="translate(6556.91 3253)">酸素飽和度</text><path d="M5317.5 1433.5C5317.5 1355.63 5470.84 1292.5 5660 1292.5 5849.16 1292.5 6002.5 1355.63 6002.5 1433.5L6002.5 1997.5C6002.5 2075.37 5849.16 2138.5 5660 2138.5 5470.84 2138.5 5317.5 2075.37 5317.5 1997.5Z" fill="#F3F3F3" fill-rule="evenodd" fill-opacity="1"/><path d="M6002.5 1433.5C6002.5 1511.37 5849.16 1574.5 5660 1574.5 5470.84 1574.5 5317.5 1511.37 5317.5 1433.5" stroke="#00695C" stroke-width="3.4375" stroke-linecap="butt" stroke-linejoin="round" stroke-miterlimit="10" stroke-opacity="1" fill="none" fill-rule="evenodd"/><path d="M5317.5 1433.5C5317.5 1355.63 5470.84 1292.5 5660 1292.5 5849.16 1292.5 6002.5 1355.63 6002.5 1433.5L6002.5 1997.5C6002.5 2075.37 5849.16 2138.5 5660 2138.5 5470.84 2138.5 5317.5 2075.37 5317.5 1997.5Z" stroke="#00695C" stroke-width="3.4375" stroke-linecap="butt" stroke-linejoin="round" stroke-miterlimit="10" stroke-opacity="1" fill="none" fill-rule="evenodd"/><text fill="#000000" fill-opacity="1" font-family="MS Gothic,MS Gothic_MSFontService,sans-serif" font-style="normal" font-variant="normal" font-weight="400" font-stretch="normal" font-size="110" text-anchor="start" direction="ltr" writing-mode="lr-tb" unicode-bidi="normal" text-decoration="none" transform="translate(5349.54 1827)">電子</text><text fill="#000000" fill-opacity="1" font-family="MS Gothic,MS Gothic_MSFontService,sans-serif" font-style="normal" font-variant="normal" font-weight="400" font-stretch="normal" font-size="110" text-anchor="start" direction="ltr" writing-mode="lr-tb" unicode-bidi="normal" text-decoration="none" transform="translate(5569.54 1827)">カルテ</text><path d="M5323.5 3526.5C5323.5 3448.63 5476.84 3385.5 5666 3385.5 5855.16 3385.5 6008.5 3448.63 6008.5 3526.5L6008.5 4090.5C6008.5 4168.37 5855.16 4231.5 5666 4231.5 5476.84 4231.5 5323.5 4168.37 5323.5 4090.5Z" fill="#F4CCCC" fill-rule="evenodd" fill-opacity="1"/><path d="M6008.5 3526.5C6008.5 3604.37 5855.16 3667.5 5666 3667.5 5476.84 3667.5 5323.5 3604.37 5323.5 3526.5" stroke="#00695C" stroke-width="3.4375" stroke-linecap="butt" stroke-linejoin="round" stroke-miterlimit="10" stroke-opacity="1" fill="none" fill-rule="evenodd"/><path d="M5323.5 3526.5C5323.5 3448.63 5476.84 3385.5 5666 3385.5 5855.16 3385.5 6008.5 3448.63 6008.5 3526.5L6008.5 4090.5C6008.5 4168.37 5855.16 4231.5 5666 4231.5 5476.84 4231.5 5323.5 4168.37 5323.5 4090.5Z" stroke="#00695C" stroke-width="3.4375" stroke-linecap="butt" stroke-linejoin="round" stroke-miterlimit="10" stroke-opacity="1" fill="none" fill-rule="evenodd"/><text fill="#000000" fill-opacity="1" font-family="Arial,Arial_MSFontService,sans-serif" font-style="normal" font-variant="normal" font-weight="400" font-stretch="normal" font-size="110" text-anchor="start" direction="ltr" writing-mode="lr-tb" unicode-bidi="normal" text-decoration="none" transform="matrix(1 0 0 1 5325.87 3920)">DELISPECT</text><path d="M0.0125274-1.7187 2438.53 16.0553 2438.51 19.4927-0.0125274 1.7187ZM2434.04 3.99097 2461.44 17.941 2433.84 31.4902Z" fill="#00695C" fill-rule="nonzero" fill-opacity="1" transform="matrix(1 -1.22465e-16 -1.22465e-16 -1 2855.5 1733.44)"/><text fill="#000000" fill-opacity="1" font-family="Arial,Arial_MSFontService,sans-serif" font-style="normal" font-variant="normal" font-weight="400" font-stretch="normal" font-size="147" text-anchor="start" direction="ltr" writing-mode="lr-tb" unicode-bidi="normal" text-decoration="none" transform="matrix(1 0 0 1 3338.24 1158)">(1)</text><text fill="#000000" fill-opacity="1" font-family="MS Gothic,MS Gothic_MSFontService,sans-serif" font-style="normal" font-variant="normal" font-weight="400" font-stretch="normal" font-size="147" text-anchor="start" direction="ltr" writing-mode="lr-tb" unicode-bidi="normal" text-decoration="none" transform="translate(3338.24 1335)">入院時、従来通</text><text fill="#000000" fill-opacity="1" font-family="MS Gothic,MS Gothic_MSFontService,sans-serif" font-style="normal" font-variant="normal" font-weight="400" font-stretch="normal" font-size="147" text-anchor="start" direction="ltr" writing-mode="lr-tb" unicode-bidi="normal" text-decoration="none" transform="translate(4364.91 1335)">り</text><text fill="#000000" fill-opacity="1" font-family="MS Gothic,MS Gothic_MSFontService,sans-serif" font-style="normal" font-variant="normal" font-weight="400" font-stretch="normal" font-size="147" text-anchor="start" direction="ltr" writing-mode="lr-tb" unicode-bidi="normal" text-decoration="none" transform="translate(3338.24 1518)">看護師・医師</text><text fill="#000000" fill-opacity="1" font-family="MS Gothic,MS Gothic_MSFontService,sans-serif" font-style="normal" font-variant="normal" font-weight="400" font-stretch="normal" font-size="147" text-anchor="start" direction="ltr" writing-mode="lr-tb" unicode-bidi="normal" text-decoration="none" transform="translate(4218.24 1518)">が</text><text fill="#000000" fill-opacity="1" font-family="MS Gothic,MS Gothic_MSFontService,sans-serif" font-style="normal" font-variant="normal" font-weight="400" font-stretch="normal" font-size="147" text-anchor="start" direction="ltr" writing-mode="lr-tb" unicode-bidi="normal" text-decoration="none" transform="translate(4364.91 1518)">データ</text><text fill="#000000" fill-opacity="1" font-family="MS Gothic,MS Gothic_MSFontService,sans-serif" font-style="normal" font-variant="normal" font-weight="400" font-stretch="normal" font-size="147" text-anchor="start" direction="ltr" writing-mode="lr-tb" unicode-bidi="normal" text-decoration="none" transform="translate(4804.91 1518)">を</text><text fill="#000000" fill-opacity="1" font-family="MS Gothic,MS Gothic_MSFontService,sans-serif" font-style="normal" font-variant="normal" font-weight="400" font-stretch="normal" font-size="147" text-anchor="start" direction="ltr" writing-mode="lr-tb" unicode-bidi="normal" text-decoration="none" transform="translate(4951.58 1518)">登</text><text fill="#000000" fill-opacity="1" font-family="MS Gothic,MS Gothic_MSFontService,sans-serif" font-style="normal" font-variant="normal" font-weight="400" font-stretch="normal" font-size="147" text-anchor="start" direction="ltr" writing-mode="lr-tb" unicode-bidi="normal" text-decoration="none" transform="translate(3338.24 1687)">録</text><text fill="#000000" fill-opacity="1" font-family="Arial,Arial_MSFontService,sans-serif" font-style="normal" font-variant="normal" font-weight="400" font-stretch="normal" font-size="147" text-anchor="start" direction="ltr" writing-mode="lr-tb" unicode-bidi="normal" text-decoration="none" transform="matrix(1 0 0 1 5731.82 2433)">(2)</text><text fill="#000000" fill-opacity="1" font-family="MS Gothic,MS Gothic_MSFontService,sans-serif" font-style="normal" font-variant="normal" font-weight="400" font-stretch="normal" font-size="147" text-anchor="start" direction="ltr" writing-mode="lr-tb" unicode-bidi="normal" text-decoration="none" transform="translate(5731.82 2610)">データ</text><text fill="#000000" fill-opacity="1" font-family="MS Gothic,MS Gothic_MSFontService,sans-serif" font-style="normal" font-variant="normal" font-weight="400" font-stretch="normal" font-size="147" text-anchor="start" direction="ltr" writing-mode="lr-tb" unicode-bidi="normal" text-decoration="none" transform="translate(6171.82 2610)">連携</text><text fill="#000000" fill-opacity="1" font-family="Arial,Arial_MSFontService,sans-serif" font-style="normal" font-variant="normal" font-weight="400" font-stretch="normal" font-size="147" text-anchor="start" direction="ltr" writing-mode="lr-tb" unicode-bidi="normal" text-decoration="none" transform="matrix(1 0 0 1 6162.11 3770)">(3)</text><text fill="#000000" fill-opacity="1" font-family="MS Gothic,MS Gothic_MSFontService,sans-serif" font-style="normal" font-variant="normal" font-weight="400" font-stretch="normal" font-size="147" text-anchor="start" direction="ltr" writing-mode="lr-tb" unicode-bidi="normal" text-decoration="none" transform="translate(6162.11 3954)">予測・</text><text fill="#000000" fill-opacity="1" font-family="MS Gothic,MS Gothic_MSFontService,sans-serif" font-style="normal" font-variant="normal" font-weight="400" font-stretch="normal" font-size="147" text-anchor="start" direction="ltr" writing-mode="lr-tb" unicode-bidi="normal" text-decoration="none" transform="translate(6602.11 3954)">ケアプラン</text><text fill="#000000" fill-opacity="1" font-family="MS Gothic,MS Gothic_MSFontService,sans-serif" font-style="normal" font-variant="normal" font-weight="400" font-stretch="normal" font-size="147" text-anchor="start" direction="ltr" writing-mode="lr-tb" unicode-bidi="normal" text-decoration="none" transform="translate(6162.11 4123)">データ</text><text fill="#000000" fill-opacity="1" font-family="MS Gothic,MS Gothic_MSFontService,sans-serif" font-style="normal" font-variant="normal" font-weight="400" font-stretch="normal" font-size="147" text-anchor="start" direction="ltr" writing-mode="lr-tb" unicode-bidi="normal" text-decoration="none" transform="translate(6602.11 4123)">を</text><text fill="#000000" fill-opacity="1" font-family="MS Gothic,MS Gothic_MSFontService,sans-serif" font-style="normal" font-variant="normal" font-weight="400" font-stretch="normal" font-size="147" text-anchor="start" direction="ltr" writing-mode="lr-tb" unicode-bidi="normal" text-decoration="none" transform="translate(6748.78 4123)">反映</text><path d="M5077.16 3711.07 3732.22 2760.13 3734.2 2757.32 5079.14 3708.26ZM3729.02 2772.6 3714.5 2745.5 3744.89 2750.15Z" fill="#00695C" fill-rule="nonzero" fill-opacity="1"/><path d="M3044 3453.33C3044 3417.25 3073.25 3388 3109.33 3388L3370.67 3388C3406.75 3388 3436 3417.25 3436 3453.33L3436 4052.67C3436 4088.75 3406.75 4118 3370.67 4118L3109.33 4118C3073.25 4118 3044 4088.75 3044 4052.67Z" fill="#D9D9D9" fill-rule="evenodd" fill-opacity="1"/><rect x="3085" y="3444" width="306" height="614" fill="#FFFFFF" fill-opacity="1"/><rect x="3120" y="3509" width="232" height="59.0002" fill="#EA9999" fill-opacity="1"/><rect x="3120" y="3608" width="166" height="59.0002" fill="#EA9999" fill-opacity="1"/><rect x="3120" y="3706" width="199" height="59.0002" fill="#EA9999" fill-opacity="1"/><path d="M2720 2459.12C2720 2424.81 2747.81 2397 2782.12 2397L3651.88 2397C3686.19 2397 3714 2424.81 3714 2459.12L3714 3030.88C3714 3065.19 3686.19 3093 3651.88 3093L2782.12 3093C2747.81 3093 2720 3065.19 2720 3030.88Z" fill="#D9D9D9" fill-rule="evenodd" fill-opacity="1"/><rect x="2773" y="2459" width="895" height="560" fill="#FFFFFF" fill-opacity="1"/><path d="M2880 3243 3034.94 3093 3406.06 3093 3561 3243Z" fill="#D9D9D9" fill-rule="evenodd" fill-opacity="1"/><rect x="3134" y="2530" width="430" height="59.0002" fill="#EA9999" fill-opacity="1"/><rect x="3134" y="2629" width="297" height="58" fill="#EA9999" fill-opacity="1"/><rect x="3134" y="2727" width="356" height="59.0002" fill="#EA9999" fill-opacity="1"/><rect x="2848" y="2530" width="233" height="298" fill="#D9D9D9" fill-opacity="1"/><path d="M5077.9 3783.79 3459.38 3755.62 3459.44 3752.18 5077.96 3780.35ZM3463.76 3767.73 3436.5 3753.5 3464.24 3740.23Z" fill="#00695C" fill-rule="nonzero" fill-opacity="1"/><path d="M2399.09 3258.75 2106.12 2380.78 2109.38 2379.69 2402.35 3257.66ZM2096.16 2388.94 2100.5 2358.5 2122.25 2380.23Z" fill="#00695C" fill-rule="nonzero" fill-opacity="1"/><path d="M1250 1784 1300.86 1340 1751.14 1340 1802 1784Z" fill="#F3F3F3" fill-rule="evenodd" fill-opacity="1"/><rect x="1394" y="1334" width="19.9999" height="196" fill="#D9D9D9" fill-opacity="1"/><path d="M1320 1627C1320 1572.88 1357.61 1529 1404 1529 1450.38 1529 1487.98 1572.85 1488 1626.96L1468.04 1626.97C1468.02 1583.87 1439.34 1548.94 1403.97 1548.96 1368.62 1548.98 1339.96 1583.91 1339.96 1627Z" fill="#D9D9D9" fill-rule="evenodd" fill-opacity="1"/><rect x="1634" y="1348" width="20.0002" height="202" fill="#D9D9D9" fill-opacity="1"/><path d="M1589 1615.5C1589 1579.33 1613.85 1550 1644.5 1550 1675.15 1550 1700 1579.33 1700 1615.5 1700 1651.67 1675.15 1681 1644.5 1681 1613.85 1681 1589 1651.67 1589 1615.5Z" fill="#D9D9D9" fill-rule="evenodd" fill-opacity="1"/><path d="M1331 1183.5C1331 1061.17 1418.3 962 1526 962 1633.7 962 1721 1061.17 1721 1183.5 1721 1305.83 1633.7 1405 1526 1405 1418.3 1405 1331 1305.83 1331 1183.5Z" fill="#FCE5CD" fill-rule="evenodd" fill-opacity="1"/><path d="M1330.77 1171.14C1340.38 1044.89 1435.57 951.66 1543.39 962.905 1607.64 969.607 1664.96 1012.9 1696.68 1078.67Z" fill="#000000" fill-rule="evenodd" fill-opacity="1"/><path d="M1485.85 966.867C1591.8 940.903 1695.67 1020.43 1717.84 1144.49 1718.83 1149.98 1719.64 1155.52 1720.27 1161.09Z" fill="#000000" fill-rule="evenodd" fill-opacity="1"/><path d="M2000 1816 2050.75 1373 2501.25 1373 2552 1816Z" fill="#F3F3F3" fill-rule="evenodd" fill-opacity="1"/><path d="M2081 1215.5C2081 1093.17 2168.3 994 2276 994 2383.7 994 2471 1093.17 2471 1215.5 2471 1337.83 2383.7 1437 2276 1437 2168.3 1437 2081 1337.83 2081 1215.5Z" fill="#FCE5CD" fill-rule="evenodd" fill-opacity="1"/><path d="M0 156 39.0001 0 345 0 384 156Z" fill="#F3F3F3" fill-rule="evenodd" fill-opacity="1" transform="matrix(1 -1.22465e-16 -1.22465e-16 -1 2084 1086)"/><path d="M2232 983.824 2259.82 983.824 2259.82 956 2293.18 956 2293.18 983.824 2321 983.824 2321 1032.18 2293.18 1032.18 2293.18 1060 2259.82 1060 2259.82 1032.18 2232 1032.18Z" fill="#E06666" fill-rule="evenodd" fill-opacity="1"/><text fill="#000000" fill-opacity="1" font-family="Arial,Arial_MSFontService,sans-serif" font-style="normal" font-variant="normal" font-weight="400" font-stretch="normal" font-size="147" text-anchor="start" direction="ltr" writing-mode="lr-tb" unicode-bidi="normal" text-decoration="none" transform="matrix(1 0 0 1 3864.37 4047)">(4)</text><text fill="#000000" fill-opacity="1" font-family="MS Gothic,MS Gothic_MSFontService,sans-serif" font-style="normal" font-variant="normal" font-weight="400" font-stretch="normal" font-size="147" text-anchor="start" direction="ltr" writing-mode="lr-tb" unicode-bidi="normal" text-decoration="none" transform="translate(3864.37 4224)">各種端末</text><text fill="#000000" fill-opacity="1" font-family="MS Gothic,MS Gothic_MSFontService,sans-serif" font-style="normal" font-variant="normal" font-weight="400" font-stretch="normal" font-size="147" text-anchor="start" direction="ltr" writing-mode="lr-tb" unicode-bidi="normal" text-decoration="none" transform="translate(4451.04 4224)">に</text><text fill="#000000" fill-opacity="1" font-family="MS Gothic,MS Gothic_MSFontService,sans-serif" font-style="normal" font-variant="normal" font-weight="400" font-stretch="normal" font-size="147" text-anchor="start" direction="ltr" writing-mode="lr-tb" unicode-bidi="normal" text-decoration="none" transform="translate(4597.7 4224)">表示</text><text fill="#000000" fill-opacity="1" font-family="Arial,Arial_MSFontService,sans-serif" font-style="normal" font-variant="normal" font-weight="400" font-stretch="normal" font-size="147" text-anchor="start" direction="ltr" writing-mode="lr-tb" unicode-bidi="normal" text-decoration="none" transform="matrix(1 0 0 1 1595.98 3305)">(5)</text><text fill="#000000" fill-opacity="1" font-family="MS Gothic,MS Gothic_MSFontService,sans-serif" font-style="normal" font-variant="normal" font-weight="400" font-stretch="normal" font-size="147" text-anchor="start" direction="ltr" writing-mode="lr-tb" unicode-bidi="normal" text-decoration="none" transform="translate(1595.98 3482)">ケア</text><text fill="#000000" fill-opacity="1" font-family="MS Gothic,MS Gothic_MSFontService,sans-serif" font-style="normal" font-variant="normal" font-weight="400" font-stretch="normal" font-size="147" text-anchor="start" direction="ltr" writing-mode="lr-tb" unicode-bidi="normal" text-decoration="none" transform="translate(1889.31 3482)">に</text><text fill="#000000" fill-opacity="1" font-family="MS Gothic,MS Gothic_MSFontService,sans-serif" font-style="normal" font-variant="normal" font-weight="400" font-stretch="normal" font-size="147" text-anchor="start" direction="ltr" writing-mode="lr-tb" unicode-bidi="normal" text-decoration="none" transform="translate(2035.98 3482)">活用</text><path d="M2661.5 4118.5C2589.43 4118.5 2531 4060.07 2531 3988L2531 3388.5C2531 3316.43 2472.57 3258 2400.5 3258 2472.57 3258 2531 3199.57 2531 3127.5L2531 2528C2531 2455.93 2589.43 2397.5 2661.5 2397.5" stroke="#00695C" stroke-width="3.4375" stroke-linecap="butt" stroke-linejoin="round" stroke-miterlimit="10" stroke-opacity="1" fill="none" fill-rule="evenodd"/><path d="M5661.22 2138.49 5667.07 3363.14 5663.64 3363.15 5657.78 2138.51ZM5679.08 3358.5 5665.46 3386.06 5651.58 3358.63Z" fill="#00695C" fill-rule="nonzero" fill-opacity="1"/></g></svg>