<svg width="8296" height="4464" xmlns="http://www.w3.org/2000/svg" xmlns:xlink="http://www.w3.org/1999/xlink" xml:space="preserve" overflow="hidden"><defs><clipPath id="clip0"><rect x="242" y="343" width="8296" height="4464"/></clipPath></defs><g clip-path="url(#clip0)" transform="translate(-242 -343)"><path d="M248.853 557.215 8531.31 557.215 8531.31 788.24 248.853 788.24Z" fill="#308B16" fill-rule="evenodd" fill-opacity="1"/><path d="M248.853 788.24 1044.1 788.24 1044.1 1457.24 248.853 1457.24Z" fill="#FFFFFF" fill-rule="evenodd" fill-opacity="0"/><path d="M1044.1 788.24 8531.31 788.24 8531.31 1457.24 1044.1 1457.24Z" fill="#FFFFFF" fill-rule="evenodd" fill-opacity="0"/><path d="M248.853 1457.24 1044.1 1457.24 1044.1 2126.25 248.853 2126.25Z" fill="#FFFFFF" fill-rule="evenodd" fill-opacity="0"/><path d="M1044.1 1457.24 8531.31 1457.24 8531.31 2126.25 1044.1 2126.25Z" fill="#FFFFFF" fill-rule="evenodd" fill-opacity="0"/><path d="M248.853 2126.25 1044.1 2126.25 1044.1 2795.25 248.853 2795.25Z" fill="#FFFFFF" fill-rule="evenodd" fill-opacity="0"/><path d="M1044.1 2126.25 8531.31 2126.25 8531.31 2795.25 1044.1 2795.25Z" fill="#FFFFFF" fill-rule="evenodd" fill-opacity="0"/><path d="M248.853 2795.25 1044.1 2795.25 1044.1 3464.26 248.853 3464.26Z" fill="#FFFFFF" fill-rule="evenodd" fill-opacity="0"/><path d="M1044.1 2795.25 8531.31 2795.25 8531.31 3464.26 1044.1 3464.26Z" fill="#FFFFFF" fill-rule="evenodd" fill-opacity="0"/><path d="M248.853 3464.26 1044.1 3464.26 1044.1 4133.26 248.853 4133.26Z" fill="#FFFFFF" fill-rule="evenodd" fill-opacity="0"/><path d="M1044.1 3464.26 8531.31 3464.26 8531.31 4133.26 1044.1 4133.26Z" fill="#FFFFFF" fill-rule="evenodd" fill-opacity="0"/><path d="M248.853 4133.26 1044.1 4133.26 1044.1 4802.27 248.853 4802.27Z" fill="#FFFFFF" fill-rule="evenodd" fill-opacity="0"/><path d="M1044.1 4133.26 8531.31 4133.26 8531.31 4802.27 1044.1 4802.27Z" fill="#FFFFFF" fill-rule="evenodd" fill-opacity="0"/><path d="M1044.1 785.949 1044.1 4804.56" stroke="#000000" stroke-width="4.58333" stroke-linecap="butt" stroke-linejoin="round" stroke-miterlimit="10" stroke-opacity="1" fill="none" fill-rule="evenodd"/><path d="M246.561 788.24 8533.6 788.24" stroke="#000000" stroke-width="4.58333" stroke-linecap="butt" stroke-linejoin="round" stroke-miterlimit="10" stroke-opacity="1" fill="none" fill-rule="evenodd"/><path d="M246.561 1457.24 8533.6 1457.24" stroke="#000000" stroke-width="4.58333" stroke-linecap="butt" stroke-linejoin="round" stroke-miterlimit="10" stroke-dasharray="4.58333 13.75" stroke-opacity="1" fill="none" fill-rule="evenodd"/><path d="M246.561 2126.25 8533.6 2126.25" stroke="#000000" stroke-width="4.58333" stroke-linecap="butt" stroke-linejoin="round" stroke-miterlimit="10" stroke-dasharray="4.58333 13.75" stroke-opacity="1" fill="none" fill-rule="evenodd"/><path d="M246.561 2795.25 8533.6 2795.25" stroke="#000000" stroke-width="4.58333" stroke-linecap="butt" stroke-linejoin="round" stroke-miterlimit="10" stroke-dasharray="4.58333 13.75" stroke-opacity="1" fill="none" fill-rule="evenodd"/><path d="M246.561 3464.26 8533.6 3464.26" stroke="#000000" stroke-width="4.58333" stroke-linecap="butt" stroke-linejoin="round" stroke-miterlimit="10" stroke-dasharray="4.58333 13.75" stroke-opacity="1" fill="none" fill-rule="evenodd"/><path d="M246.561 4133.26 8533.6 4133.26" stroke="#000000" stroke-width="4.58333" stroke-linecap="butt" stroke-linejoin="round" stroke-miterlimit="10" stroke-dasharray="4.58333 13.75" stroke-opacity="1" fill="none" fill-rule="evenodd"/><path d="M248.853 554.923 248.853 4804.56" stroke="#000000" stroke-width="4.58333" stroke-linecap="butt" stroke-linejoin="round" stroke-miterlimit="10" stroke-opacity="1" fill="none" fill-rule="evenodd"/><path d="M8531.31 554.923 8531.31 4804.56" stroke="#000000" stroke-width="4.58333" stroke-linecap="butt" stroke-linejoin="round" stroke-miterlimit="10" stroke-opacity="1" fill="none" fill-rule="evenodd"/><path d="M246.561 557.215 8533.6 557.215" stroke="#000000" stroke-width="4.58333" stroke-linecap="butt" stroke-linejoin="round" stroke-miterlimit="10" stroke-opacity="1" fill="none" fill-rule="evenodd"/><path d="M246.561 4802.27 8533.6 4802.27" stroke="#000000" stroke-width="4.58333" stroke-linecap="butt" stroke-linejoin="round" stroke-miterlimit="10" stroke-opacity="1" fill="none" fill-rule="evenodd"/><text fill="#FFFFFF" fill-opacity="1" font-family="Hiragino Kaku Gothic ProN W3,Hiragino Kaku Gothic ProN W3_MSFontService,sans-serif" font-style="normal" font-variant="normal" font-weight="300" font-stretch="normal" font-size="128" text-anchor="start" direction="ltr" writing-mode="lr-tb" unicode-bidi="normal" text-decoration="none" transform="matrix(1 0 0 1 4197.58 721)">入院翌日以降</text><text fill="#000000" fill-opacity="1" font-family="Hiragino Kaku Gothic ProN W3,Hiragino Kaku Gothic ProN W3_MSFontService,sans-serif" font-style="normal" font-variant="normal" font-weight="300" font-stretch="normal" font-size="128" text-anchor="start" direction="ltr" writing-mode="lr-tb" unicode-bidi="normal" text-decoration="none" transform="matrix(1 0 0 1 518.142 1171)">患者</text><text fill="#000000" fill-opacity="1" font-family="Hiragino Kaku Gothic ProN W3,Hiragino Kaku Gothic ProN W3_MSFontService,sans-serif" font-style="normal" font-variant="normal" font-weight="300" font-stretch="normal" font-size="128" text-anchor="start" direction="ltr" writing-mode="lr-tb" unicode-bidi="normal" text-decoration="none" transform="matrix(1 0 0 1 453.975 1840)">主治医</text><text fill="#000000" fill-opacity="1" font-family="Hiragino Kaku Gothic ProN W3,Hiragino Kaku Gothic ProN W3_MSFontService,sans-serif" font-style="normal" font-variant="normal" font-weight="300" font-stretch="normal" font-size="128" text-anchor="start" direction="ltr" writing-mode="lr-tb" unicode-bidi="normal" text-decoration="none" transform="matrix(1 0 0 1 453.975 2509)">看護師</text><text fill="#000000" fill-opacity="1" font-family="Hiragino Kaku Gothic ProN W3,Hiragino Kaku Gothic ProN W3_MSFontService,sans-serif" font-style="normal" font-variant="normal" font-weight="300" font-stretch="normal" font-size="128" text-anchor="start" direction="ltr" writing-mode="lr-tb" unicode-bidi="normal" text-decoration="none" transform="matrix(1 0 0 1 453.975 3178)">薬剤師</text><text fill="#000000" fill-opacity="1" font-family="Hiragino Kaku Gothic ProN W3,Hiragino Kaku Gothic ProN W3_MSFontService,sans-serif" font-style="normal" font-variant="normal" font-weight="300" font-stretch="normal" font-size="128" text-anchor="start" direction="ltr" writing-mode="lr-tb" unicode-bidi="normal" text-decoration="none" transform="matrix(1 0 0 1 518.142 3847)">事務</text><text fill="#000000" fill-opacity="1" font-family="Hiragino Kaku Gothic ProN W3,Hiragino Kaku Gothic ProN W3_MSFontService,sans-serif" font-style="normal" font-variant="normal" font-weight="300" font-stretch="normal" font-size="128" text-anchor="start" direction="ltr" writing-mode="lr-tb" unicode-bidi="normal" text-decoration="none" transform="matrix(1 0 0 1 389.809 4516)">システム</text><rect x="7094.5" y="382.5" width="323" height="98" stroke="#308B16" stroke-width="4.58333" stroke-linecap="butt" stroke-linejoin="miter" stroke-miterlimit="4" stroke-opacity="1" fill="#DCD9F2" fill-opacity="1"/><text fill="#000000" fill-opacity="1" font-family="MS Mincho,MS Mincho_MSFontService,sans-serif" font-style="normal" font-variant="normal" font-weight="400" font-stretch="normal" font-size="83" text-anchor="start" direction="ltr" writing-mode="lr-tb" unicode-bidi="normal" text-decoration="none" transform="matrix(1 0 0 1 7172.99 458)">日勤</text><rect x="7450.5" y="384.5" width="310" height="95.9999" stroke="#308B16" stroke-width="4.58333" stroke-linecap="butt" stroke-linejoin="miter" stroke-miterlimit="4" stroke-opacity="1" fill="#BFE0FF" fill-opacity="1"/><text fill="#000000" fill-opacity="1" font-family="MS Mincho,MS Mincho_MSFontService,sans-serif" font-style="normal" font-variant="normal" font-weight="400" font-stretch="normal" font-size="83" text-anchor="start" direction="ltr" writing-mode="lr-tb" unicode-bidi="normal" text-decoration="none" transform="matrix(1 0 0 1 7522.42 459)">夜勤</text><rect x="1220.5" y="908.5" width="534" height="409" stroke="#308B16" stroke-width="4.58333" stroke-linecap="butt" stroke-linejoin="miter" stroke-miterlimit="4" stroke-opacity="1" fill="#CCF5C1" fill-opacity="1"/><text fill="#000000" fill-opacity="1" font-family="MS Gothic,MS Gothic_MSFontService,sans-serif" font-style="normal" font-variant="normal" font-weight="400" font-stretch="normal" font-size="92" text-anchor="start" direction="ltr" writing-mode="lr-tb" unicode-bidi="normal" text-decoration="none" transform="matrix(1 0 0 1 1395.07 1148)">起床</text><rect x="1220.5" y="2262.5" width="534" height="409" stroke="#308B16" stroke-width="4.58333" stroke-linecap="butt" stroke-linejoin="miter" stroke-miterlimit="4" stroke-opacity="1" fill="#BFE0FF" fill-opacity="1"/><text fill="#000000" fill-opacity="1" font-family="MS Gothic,MS Gothic_MSFontService,sans-serif" font-style="normal" font-variant="normal" font-weight="400" font-stretch="normal" font-size="92" text-anchor="start" direction="ltr" writing-mode="lr-tb" unicode-bidi="normal" text-decoration="none" transform="matrix(1 0 0 1 1257.57 2397)">バイタル計</text><text fill="#000000" fill-opacity="1" font-family="MS Gothic,MS Gothic_MSFontService,sans-serif" font-style="normal" font-variant="normal" font-weight="400" font-stretch="normal" font-size="92" text-anchor="start" direction="ltr" writing-mode="lr-tb" unicode-bidi="normal" text-decoration="none" transform="matrix(1 0 0 1 1440.9 2502)">測</text><text fill="#000000" fill-opacity="1" font-family="MS Gothic,MS Gothic_MSFontService,sans-serif" font-style="normal" font-variant="normal" font-weight="400" font-stretch="normal" font-size="92" text-anchor="start" direction="ltr" writing-mode="lr-tb" unicode-bidi="normal" text-decoration="none" transform="matrix(1 0 0 1 1395.07 2612)">採血</text><rect x="1891.5" y="2262.5" width="534" height="409" stroke="#308B16" stroke-width="4.58333" stroke-linecap="butt" stroke-linejoin="miter" stroke-miterlimit="4" stroke-opacity="1" fill="#BFE0FF" fill-opacity="1"/><text fill="#000000" fill-opacity="1" font-family="MS Gothic,MS Gothic_MSFontService,sans-serif" font-style="normal" font-variant="normal" font-weight="400" font-stretch="normal" font-size="92" text-anchor="start" direction="ltr" writing-mode="lr-tb" unicode-bidi="normal" text-decoration="none" transform="matrix(1 0 0 1 1974.77 2502)">朝食配膳</text><rect x="1891.5" y="908.5" width="534" height="409" stroke="#308B16" stroke-width="4.58333" stroke-linecap="butt" stroke-linejoin="miter" stroke-miterlimit="4" stroke-opacity="1" fill="#CCF5C1" fill-opacity="1"/><text fill="#000000" fill-opacity="1" font-family="MS Gothic,MS Gothic_MSFontService,sans-serif" font-style="normal" font-variant="normal" font-weight="400" font-stretch="normal" font-size="92" text-anchor="start" direction="ltr" writing-mode="lr-tb" unicode-bidi="normal" text-decoration="none" transform="matrix(1 0 0 1 2066.44 1148)">朝食</text><rect x="3212.5" y="2262.5" width="534" height="409" stroke="#308B16" stroke-width="4.58333" stroke-linecap="butt" stroke-linejoin="miter" stroke-miterlimit="4" stroke-opacity="1" fill="#DCD9F2" fill-opacity="1"/><text fill="#000000" fill-opacity="1" font-family="MS Mincho,MS Mincho_MSFontService,sans-serif" font-style="normal" font-variant="normal" font-weight="400" font-stretch="normal" font-size="83" text-anchor="start" direction="ltr" writing-mode="lr-tb" unicode-bidi="normal" text-decoration="none" transform="matrix(1 0 0 1 3273.11 2453)">バイタル計</text><text fill="#000000" fill-opacity="1" font-family="MS Mincho,MS Mincho_MSFontService,sans-serif" font-style="normal" font-variant="normal" font-weight="400" font-stretch="normal" font-size="83" text-anchor="start" direction="ltr" writing-mode="lr-tb" unicode-bidi="normal" text-decoration="none" transform="matrix(1 0 0 1 3438.11 2544)">測</text><rect x="4456.5" y="908.5" width="534" height="409" stroke="#308B16" stroke-width="4.58333" stroke-linecap="butt" stroke-linejoin="miter" stroke-miterlimit="4" stroke-opacity="1" fill="#CCF5C1" fill-opacity="1"/><text fill="#000000" fill-opacity="1" font-family="MS Gothic,MS Gothic_MSFontService,sans-serif" font-style="normal" font-variant="normal" font-weight="400" font-stretch="normal" font-size="92" text-anchor="start" direction="ltr" writing-mode="lr-tb" unicode-bidi="normal" text-decoration="none" transform="matrix(1 0 0 1 4631.14 1148)">昼食</text><rect x="7162.5" y="911.5" width="534" height="409" stroke="#308B16" stroke-width="4.58333" stroke-linecap="butt" stroke-linejoin="miter" stroke-miterlimit="4" stroke-opacity="1" fill="#CCF5C1" fill-opacity="1"/><text fill="#000000" fill-opacity="1" font-family="MS Gothic,MS Gothic_MSFontService,sans-serif" font-style="normal" font-variant="normal" font-weight="400" font-stretch="normal" font-size="92" text-anchor="start" direction="ltr" writing-mode="lr-tb" unicode-bidi="normal" text-decoration="none" transform="matrix(1 0 0 1 7337.27 1151)">夕食</text><rect x="6505.5" y="2262.5" width="534" height="409" stroke="#308B16" stroke-width="4.58333" stroke-linecap="butt" stroke-linejoin="miter" stroke-miterlimit="4" stroke-opacity="1" fill="#BFE0FF" fill-opacity="1"/><text fill="#000000" fill-opacity="1" font-family="MS Mincho,MS Mincho_MSFontService,sans-serif" font-style="normal" font-variant="normal" font-weight="400" font-stretch="normal" font-size="83" text-anchor="start" direction="ltr" writing-mode="lr-tb" unicode-bidi="normal" text-decoration="none" transform="matrix(1 0 0 1 6565.61 2453)">バイタル計</text><text fill="#000000" fill-opacity="1" font-family="MS Mincho,MS Mincho_MSFontService,sans-serif" font-style="normal" font-variant="normal" font-weight="400" font-stretch="normal" font-size="83" text-anchor="start" direction="ltr" writing-mode="lr-tb" unicode-bidi="normal" text-decoration="none" transform="matrix(1 0 0 1 6730.61 2544)">測</text><rect x="7162.5" y="2261.5" width="534" height="409" stroke="#308B16" stroke-width="4.58333" stroke-linecap="butt" stroke-linejoin="miter" stroke-miterlimit="4" stroke-opacity="1" fill="#BFE0FF" fill-opacity="1"/><text fill="#000000" fill-opacity="1" font-family="MS Mincho,MS Mincho_MSFontService,sans-serif" font-style="normal" font-variant="normal" font-weight="400" font-stretch="normal" font-size="83" text-anchor="start" direction="ltr" writing-mode="lr-tb" unicode-bidi="normal" text-decoration="none" transform="matrix(1 0 0 1 7263.93 2493)">夕食配膳</text><path d="M2626.5 4287.75C2626.5 4315.5 2716.49 4338 2827.5 4338 2938.51 4338 3028.5 4315.5 3028.5 4287.75L3028.5 4643.25C3028.5 4671 2938.51 4693.5 2827.5 4693.5 2716.49 4693.5 2626.5 4671 2626.5 4643.25Z" fill="#F5E5CE" fill-rule="evenodd" fill-opacity="1"/><path d="M2626.5 4287.75C2626.5 4260 2716.49 4237.5 2827.5 4237.5 2938.51 4237.5 3028.5 4260 3028.5 4287.75 3028.5 4315.5 2938.51 4338 2827.5 4338 2716.49 4338 2626.5 4315.5 2626.5 4287.75Z" fill="#F9EFE2" fill-rule="evenodd" fill-opacity="1"/><path d="M3028.5 4287.75C3028.5 4315.5 2938.51 4338 2827.5 4338 2716.49 4338 2626.5 4315.5 2626.5 4287.75 2626.5 4260 2716.49 4237.5 2827.5 4237.5 2938.51 4237.5 3028.5 4260 3028.5 4287.75L3028.5 4643.25C3028.5 4671 2938.51 4693.5 2827.5 4693.5 2716.49 4693.5 2626.5 4671 2626.5 4643.25L2626.5 4287.75" stroke="#BC8027" stroke-width="4.58333" stroke-linecap="butt" stroke-linejoin="miter" stroke-miterlimit="4" stroke-opacity="1" fill="none" fill-rule="evenodd"/><text fill="#000000" fill-opacity="1" font-family="MS Gothic,MS Gothic_MSFontService,sans-serif" font-style="normal" font-variant="normal" font-weight="400" font-stretch="normal" font-size="83" text-anchor="start" direction="ltr" writing-mode="lr-tb" unicode-bidi="normal" text-decoration="none" transform="matrix(1 0 0 1 2661.63 4476)">電子カル</text><text fill="#000000" fill-opacity="1" font-family="MS Gothic,MS Gothic_MSFontService,sans-serif" font-style="normal" font-variant="normal" font-weight="400" font-stretch="normal" font-size="83" text-anchor="start" direction="ltr" writing-mode="lr-tb" unicode-bidi="normal" text-decoration="none" transform="matrix(1 0 0 1 2785.38 4571)">テ</text><path d="M5196.5 4287.75C5196.5 4315.5 5286.49 4338 5397.5 4338 5508.51 4338 5598.5 4315.5 5598.5 4287.75L5598.5 4643.25C5598.5 4671 5508.51 4693.5 5397.5 4693.5 5286.49 4693.5 5196.5 4671 5196.5 4643.25Z" fill="#F5E5CE" fill-rule="evenodd" fill-opacity="1"/><path d="M5196.5 4287.75C5196.5 4260 5286.49 4237.5 5397.5 4237.5 5508.51 4237.5 5598.5 4260 5598.5 4287.75 5598.5 4315.5 5508.51 4338 5397.5 4338 5286.49 4338 5196.5 4315.5 5196.5 4287.75Z" fill="#F9EFE2" fill-rule="evenodd" fill-opacity="1"/><path d="M5598.5 4287.75C5598.5 4315.5 5508.51 4338 5397.5 4338 5286.49 4338 5196.5 4315.5 5196.5 4287.75 5196.5 4260 5286.49 4237.5 5397.5 4237.5 5508.51 4237.5 5598.5 4260 5598.5 4287.75L5598.5 4643.25C5598.5 4671 5508.51 4693.5 5397.5 4693.5 5286.49 4693.5 5196.5 4671 5196.5 4643.25L5196.5 4287.75" stroke="#BC8027" stroke-width="4.58333" stroke-linecap="butt" stroke-linejoin="miter" stroke-miterlimit="4" stroke-opacity="1" fill="none" fill-rule="evenodd"/><text fill="#000000" fill-opacity="1" font-family="MS Gothic,MS Gothic_MSFontService,sans-serif" font-style="normal" font-variant="normal" font-weight="400" font-stretch="normal" font-size="83" text-anchor="start" direction="ltr" writing-mode="lr-tb" unicode-bidi="normal" text-decoration="none" transform="matrix(1 0 0 1 5231.82 4476)">電子カル</text><text fill="#000000" fill-opacity="1" font-family="MS Gothic,MS Gothic_MSFontService,sans-serif" font-style="normal" font-variant="normal" font-weight="400" font-stretch="normal" font-size="83" text-anchor="start" direction="ltr" writing-mode="lr-tb" unicode-bidi="normal" text-decoration="none" transform="matrix(1 0 0 1 5355.57 4571)">テ</text><path d="M2835.08 2676.5 2835.08 2713.17 2825.92 2713.17 2825.92 2676.5ZM2835.08 2740.67 2835.08 2777.33 2825.92 2777.33 2825.92 2740.67ZM2835.08 2804.83 2835.08 2841.5 2825.92 2841.5 2825.92 2804.83ZM2835.08 2869 2835.08 2905.67 2825.92 2905.67 2825.92 2869ZM2835.08 2933.17 2835.08 2969.83 2825.92 2969.83 2825.92 2933.17ZM2835.08 2997.33 2835.08 3034 2825.92 3034 2825.92 2997.33ZM2835.08 3061.5 2835.08 3098.17 2825.92 3098.17 2825.92 3061.5ZM2835.08 3125.67 2835.08 3162.33 2825.92 3162.33 2825.92 3125.67ZM2835.08 3189.83 2835.08 3226.5 2825.92 3226.5 2825.92 3189.83ZM2835.08 3254 2835.08 3290.67 2825.92 3290.67 2825.92 3254ZM2835.08 3318.17 2835.08 3354.83 2825.92 3354.83 2825.92 3318.17ZM2835.08 3382.33 2835.08 3419 2825.92 3419 2825.92 3382.33ZM2835.08 3446.5 2835.08 3483.17 2825.92 3483.17 2825.92 3446.5ZM2835.08 3510.67 2835.08 3547.33 2825.92 3547.33 2825.92 3510.67ZM2835.08 3574.83 2835.08 3611.5 2825.92 3611.5 2825.92 3574.83ZM2835.08 3639 2835.08 3675.67 2825.92 3675.67 2825.92 3639ZM2835.08 3703.17 2835.08 3739.83 2825.92 3739.83 2825.92 3703.17ZM2835.08 3767.33 2835.08 3804 2825.92 3804 2825.92 3767.33ZM2835.08 3831.5 2835.08 3868.17 2825.92 3868.17 2825.92 3831.5ZM2835.08 3895.67 2835.08 3932.33 2825.92 3932.33 2825.92 3895.67ZM2835.08 3959.83 2835.08 3996.5 2825.92 3996.5 2825.92 3959.83ZM2835.08 4024 2835.08 4060.67 2825.92 4060.67 2825.92 4024ZM2835.08 4088.17 2835.08 4124.83 2825.92 4124.83 2825.92 4088.17ZM2835.08 4152.33 2835.08 4189 2825.92 4189 2825.92 4152.33ZM2844.25 4206.45 2830.5 4233.95 2816.75 4206.45Z" fill="#000000" fill-rule="nonzero" fill-opacity="1"/><rect x="2570.5" y="2858.5" width="534" height="743" stroke="#308B16" stroke-width="4.58333" stroke-linecap="butt" stroke-linejoin="miter" stroke-miterlimit="4" stroke-opacity="1" fill="#FFFFFF" fill-opacity="1"/><text fill="#000000" fill-opacity="1" font-family="Arial,Arial_MSFontService,sans-serif" font-style="normal" font-variant="normal" font-weight="400" font-stretch="normal" font-size="83" text-anchor="start" direction="ltr" writing-mode="lr-tb" unicode-bidi="normal" text-decoration="none" transform="matrix(1 0 0 1 2595.89 2961)">•</text><text fill="#000000" fill-opacity="1" font-family="MS Mincho,MS Mincho_MSFontService,sans-serif" font-style="normal" font-variant="normal" font-weight="400" font-stretch="normal" font-size="83" text-anchor="start" direction="ltr" writing-mode="lr-tb" unicode-bidi="normal" text-decoration="none" transform="matrix(1 0 0 1 2637.14 2961)">バイタル</text><text fill="#000000" fill-opacity="1" font-family="Arial,Arial_MSFontService,sans-serif" font-style="normal" font-variant="normal" font-weight="400" font-stretch="normal" font-size="83" text-anchor="start" direction="ltr" writing-mode="lr-tb" unicode-bidi="normal" text-decoration="none" transform="matrix(1 0 0 1 2595.89 3060)">•</text><text fill="#000000" fill-opacity="1" font-family="MS Mincho,MS Mincho_MSFontService,sans-serif" font-style="normal" font-variant="normal" font-weight="400" font-stretch="normal" font-size="83" text-anchor="start" direction="ltr" writing-mode="lr-tb" unicode-bidi="normal" text-decoration="none" transform="matrix(1 0 0 1 2637.14 3060)">血液検査</text><path d="M5411.08 2671.5 5411.08 2708.17 5401.92 2708.17 5401.92 2671.5ZM5411.08 2735.67 5411.08 2772.33 5401.92 2772.33 5401.92 2735.67ZM5411.08 2799.83 5411.08 2836.5 5401.92 2836.5 5401.92 2799.83ZM5411.08 2864 5411.08 2900.67 5401.92 2900.67 5401.92 2864ZM5411.08 2928.17 5411.08 2964.83 5401.92 2964.83 5401.92 2928.17ZM5411.08 2992.33 5411.08 3029 5401.92 3029 5401.92 2992.33ZM5411.08 3056.5 5411.08 3093.17 5401.92 3093.17 5401.92 3056.5ZM5411.08 3120.67 5411.08 3157.33 5401.92 3157.33 5401.92 3120.67ZM5411.08 3184.83 5411.08 3221.5 5401.92 3221.5 5401.92 3184.83ZM5411.08 3249 5411.08 3285.67 5401.92 3285.67 5401.92 3249ZM5411.08 3313.17 5411.08 3349.83 5401.92 3349.83 5401.92 3313.17ZM5411.08 3377.33 5411.08 3414 5401.92 3414 5401.92 3377.33ZM5411.08 3441.5 5411.08 3478.17 5401.92 3478.17 5401.92 3441.5ZM5411.08 3505.67 5411.08 3542.33 5401.92 3542.33 5401.92 3505.67ZM5411.08 3569.83 5411.08 3606.5 5401.92 3606.5 5401.92 3569.83ZM5411.08 3634 5411.08 3670.67 5401.92 3670.67 5401.92 3634ZM5411.08 3698.17 5411.08 3734.83 5401.92 3734.83 5401.92 3698.17ZM5411.08 3762.33 5411.08 3799 5401.92 3799 5401.92 3762.33ZM5411.08 3826.5 5411.08 3863.17 5401.92 3863.17 5401.92 3826.5ZM5411.08 3890.67 5411.08 3927.33 5401.92 3927.33 5401.92 3890.67ZM5411.08 3954.83 5411.08 3991.5 5401.92 3991.5 5401.92 3954.83ZM5411.08 4019 5411.08 4055.67 5401.92 4055.67 5401.92 4019ZM5411.08 4083.17 5411.08 4119.83 5401.92 4119.83 5401.92 4083.17ZM5411.08 4147.33 5411.08 4184 5401.92 4184 5401.92 4147.33ZM5420.25 4201.45 5406.5 4228.95 5392.75 4201.45Z" fill="#000000" fill-rule="nonzero" fill-opacity="1"/><rect x="5147.5" y="2854.5" width="533" height="743" stroke="#308B16" stroke-width="4.58333" stroke-linecap="butt" stroke-linejoin="miter" stroke-miterlimit="4" stroke-opacity="1" fill="#FFFFFF" fill-opacity="1"/><text fill="#000000" fill-opacity="1" font-family="Arial,Arial_MSFontService,sans-serif" font-style="normal" font-variant="normal" font-weight="400" font-stretch="normal" font-size="83" text-anchor="start" direction="ltr" writing-mode="lr-tb" unicode-bidi="normal" text-decoration="none" transform="matrix(1 0 0 1 5172.4 2956)">•</text><text fill="#000000" fill-opacity="1" font-family="MS Mincho,MS Mincho_MSFontService,sans-serif" font-style="normal" font-variant="normal" font-weight="400" font-stretch="normal" font-size="83" text-anchor="start" direction="ltr" writing-mode="lr-tb" unicode-bidi="normal" text-decoration="none" transform="matrix(1 0 0 1 5213.65 2956)">看護計画</text><text fill="#000000" fill-opacity="1" font-family="MS Mincho,MS Mincho_MSFontService,sans-serif" font-style="normal" font-variant="normal" font-weight="400" font-stretch="normal" font-size="83" text-anchor="start" direction="ltr" writing-mode="lr-tb" unicode-bidi="normal" text-decoration="none" transform="matrix(1 0 0 1 5254.9 3055)">（修正）</text><rect x="5815.5" y="2261.5" width="534" height="409" stroke="#308B16" stroke-width="4.58333" stroke-linecap="butt" stroke-linejoin="miter" stroke-miterlimit="4" stroke-opacity="1" fill="#DCD9F2" fill-opacity="1"/><text fill="#000000" fill-opacity="1" font-family="MS Mincho,MS Mincho_MSFontService,sans-serif" font-style="normal" font-variant="normal" font-weight="400" font-stretch="normal" font-size="83" text-anchor="start" direction="ltr" writing-mode="lr-tb" unicode-bidi="normal" text-decoration="none" transform="matrix(1 0 0 1 5875.65 2451)">記録・引継</text><text fill="#000000" fill-opacity="1" font-family="MS Mincho,MS Mincho_MSFontService,sans-serif" font-style="normal" font-variant="normal" font-weight="400" font-stretch="normal" font-size="83" text-anchor="start" direction="ltr" writing-mode="lr-tb" unicode-bidi="normal" text-decoration="none" transform="matrix(1 0 0 1 6040.65 2542)">ぎ</text><path d="M5881.5 4283.75C5881.5 4311.5 5971.49 4334 6082.5 4334 6193.51 4334 6283.5 4311.5 6283.5 4283.75L6283.5 4639.25C6283.5 4667 6193.51 4689.5 6082.5 4689.5 5971.49 4689.5 5881.5 4667 5881.5 4639.25Z" fill="#F5E5CE" fill-rule="evenodd" fill-opacity="1"/><path d="M5881.5 4283.75C5881.5 4256 5971.49 4233.5 6082.5 4233.5 6193.51 4233.5 6283.5 4256 6283.5 4283.75 6283.5 4311.5 6193.51 4334 6082.5 4334 5971.49 4334 5881.5 4311.5 5881.5 4283.75Z" fill="#F9EFE2" fill-rule="evenodd" fill-opacity="1"/><path d="M6283.5 4283.75C6283.5 4311.5 6193.51 4334 6082.5 4334 5971.49 4334 5881.5 4311.5 5881.5 4283.75 5881.5 4256 5971.49 4233.5 6082.5 4233.5 6193.51 4233.5 6283.5 4256 6283.5 4283.75L6283.5 4639.25C6283.5 4667 6193.51 4689.5 6082.5 4689.5 5971.49 4689.5 5881.5 4667 5881.5 4639.25L5881.5 4283.75" stroke="#BC8027" stroke-width="4.58333" stroke-linecap="butt" stroke-linejoin="miter" stroke-miterlimit="4" stroke-opacity="1" fill="none" fill-rule="evenodd"/><text fill="#000000" fill-opacity="1" font-family="MS Gothic,MS Gothic_MSFontService,sans-serif" font-style="normal" font-variant="normal" font-weight="400" font-stretch="normal" font-size="83" text-anchor="start" direction="ltr" writing-mode="lr-tb" unicode-bidi="normal" text-decoration="none" transform="matrix(1 0 0 1 5917.05 4472)">電子カル</text><text fill="#000000" fill-opacity="1" font-family="MS Gothic,MS Gothic_MSFontService,sans-serif" font-style="normal" font-variant="normal" font-weight="400" font-stretch="normal" font-size="83" text-anchor="start" direction="ltr" writing-mode="lr-tb" unicode-bidi="normal" text-decoration="none" transform="matrix(1 0 0 1 6040.8 4567)">テ</text><path d="M6087.08 2670.5 6087.09 2707.17 6077.92 2707.17 6077.92 2670.5ZM6087.09 2734.67 6087.1 2771.33 6077.93 2771.33 6077.92 2734.67ZM6087.1 2798.83 6087.1 2835.5 6077.94 2835.5 6077.93 2798.83ZM6087.11 2863 6087.11 2899.67 6077.95 2899.67 6077.94 2863ZM6087.12 2927.17 6087.12 2963.83 6077.95 2963.83 6077.95 2927.17ZM6087.12 2991.33 6087.13 3028 6077.96 3028 6077.96 2991.33ZM6087.13 3055.5 6087.14 3092.17 6077.97 3092.17 6077.96 3055.5ZM6087.14 3119.67 6087.14 3156.33 6077.98 3156.33 6077.97 3119.67ZM6087.15 3183.83 6087.15 3220.5 6077.99 3220.5 6077.98 3183.83ZM6087.16 3248 6087.16 3284.67 6077.99 3284.67 6077.99 3248ZM6087.16 3312.17 6087.17 3348.83 6078 3348.83 6078 3312.17ZM6087.17 3376.33 6087.18 3413 6078.01 3413 6078.01 3376.33ZM6087.18 3440.5 6087.18 3477.17 6078.02 3477.17 6078.01 3440.5ZM6087.19 3504.67 6087.19 3541.33 6078.03 3541.33 6078.02 3504.67ZM6087.2 3568.83 6087.2 3605.5 6078.03 3605.5 6078.03 3568.83ZM6087.2 3633 6087.21 3669.67 6078.04 3669.67 6078.04 3633ZM6087.21 3697.17 6087.22 3733.83 6078.05 3733.83 6078.05 3697.17ZM6087.22 3761.33 6087.22 3798 6078.06 3798 6078.05 3761.33ZM6087.23 3825.5 6087.23 3862.17 6078.07 3862.17 6078.06 3825.5ZM6087.24 3889.67 6087.24 3926.33 6078.07 3926.33 6078.07 3889.67ZM6087.24 3953.83 6087.25 3990.5 6078.08 3990.5 6078.08 3953.83ZM6087.25 4018 6087.26 4054.67 6078.09 4054.67 6078.09 4018ZM6087.26 4082.17 6087.27 4118.83 6078.1 4118.83 6078.09 4082.17ZM6087.27 4146.33 6087.27 4183 6078.11 4183 6078.1 4146.33ZM6087.28 4210.5 6087.28 4210.75 6078.11 4210.75 6078.11 4210.5ZM6096.44 4206.17 6082.7 4233.67 6068.94 4206.17Z" fill="#000000" fill-rule="nonzero" fill-opacity="1"/><rect x="5819.5" y="2858.5" width="534" height="743" stroke="#308B16" stroke-width="4.58333" stroke-linecap="butt" stroke-linejoin="miter" stroke-miterlimit="4" stroke-opacity="1" fill="#FFFFFF" fill-opacity="1"/><text fill="#000000" fill-opacity="1" font-family="Arial,Arial_MSFontService,sans-serif" font-style="normal" font-variant="normal" font-weight="400" font-stretch="normal" font-size="83" text-anchor="start" direction="ltr" writing-mode="lr-tb" unicode-bidi="normal" text-decoration="none" transform="matrix(1 0 0 1 5845.06 2965)">•</text><text fill="#000000" fill-opacity="1" font-family="MS Mincho,MS Mincho_MSFontService,sans-serif" font-style="normal" font-variant="normal" font-weight="400" font-stretch="normal" font-size="83" text-anchor="start" direction="ltr" writing-mode="lr-tb" unicode-bidi="normal" text-decoration="none" transform="matrix(1 0 0 1 5886.31 2965)">？？？</text><rect x="3935.5" y="1597.5" width="350" height="409" stroke="#308B16" stroke-width="4.58333" stroke-linecap="butt" stroke-linejoin="miter" stroke-miterlimit="4" stroke-opacity="1" fill="#CCF5C1" fill-opacity="1"/><text fill="#000000" fill-opacity="1" font-family="MS Gothic,MS Gothic_MSFontService,sans-serif" font-style="normal" font-variant="normal" font-weight="400" font-stretch="normal" font-size="92" text-anchor="start" direction="ltr" writing-mode="lr-tb" unicode-bidi="normal" text-decoration="none" transform="matrix(1 0 0 1 4018.29 1837)">回診</text><path d="M3909.5 4283.75C3909.5 4311.5 3999.49 4334 4110.5 4334 4221.51 4334 4311.5 4311.5 4311.5 4283.75L4311.5 4639.25C4311.5 4667 4221.51 4689.5 4110.5 4689.5 3999.49 4689.5 3909.5 4667 3909.5 4639.25Z" fill="#F5E5CE" fill-rule="evenodd" fill-opacity="1"/><path d="M3909.5 4283.75C3909.5 4256 3999.49 4233.5 4110.5 4233.5 4221.51 4233.5 4311.5 4256 4311.5 4283.75 4311.5 4311.5 4221.51 4334 4110.5 4334 3999.49 4334 3909.5 4311.5 3909.5 4283.75Z" fill="#F9EFE2" fill-rule="evenodd" fill-opacity="1"/><path d="M4311.5 4283.75C4311.5 4311.5 4221.51 4334 4110.5 4334 3999.49 4334 3909.5 4311.5 3909.5 4283.75 3909.5 4256 3999.49 4233.5 4110.5 4233.5 4221.51 4233.5 4311.5 4256 4311.5 4283.75L4311.5 4639.25C4311.5 4667 4221.51 4689.5 4110.5 4689.5 3999.49 4689.5 3909.5 4667 3909.5 4639.25L3909.5 4283.75" stroke="#BC8027" stroke-width="4.58333" stroke-linecap="butt" stroke-linejoin="miter" stroke-miterlimit="4" stroke-opacity="1" fill="none" fill-rule="evenodd"/><text fill="#000000" fill-opacity="1" font-family="MS Gothic,MS Gothic_MSFontService,sans-serif" font-style="normal" font-variant="normal" font-weight="400" font-stretch="normal" font-size="83" text-anchor="start" direction="ltr" writing-mode="lr-tb" unicode-bidi="normal" text-decoration="none" transform="matrix(1 0 0 1 3945.19 4472)">電子カル</text><text fill="#000000" fill-opacity="1" font-family="MS Gothic,MS Gothic_MSFontService,sans-serif" font-style="normal" font-variant="normal" font-weight="400" font-stretch="normal" font-size="83" text-anchor="start" direction="ltr" writing-mode="lr-tb" unicode-bidi="normal" text-decoration="none" transform="matrix(1 0 0 1 4068.94 4567)">テ</text><path d="M4115.08 2006.5 4115.09 2043.17 4105.92 2043.17 4105.92 2006.5ZM4115.09 2070.67 4115.09 2107.33 4105.93 2107.33 4105.92 2070.67ZM4115.09 2134.83 4115.1 2171.5 4105.93 2171.5 4105.93 2134.83ZM4115.1 2199 4115.1 2235.67 4105.94 2235.67 4105.93 2199ZM4115.11 2263.17 4115.11 2299.83 4105.94 2299.83 4105.94 2263.17ZM4115.11 2327.33 4115.11 2364 4105.95 2364 4105.94 2327.33ZM4115.12 2391.5 4115.12 2428.17 4105.95 2428.17 4105.95 2391.5ZM4115.12 2455.67 4115.13 2492.33 4105.96 2492.33 4105.96 2455.67ZM4115.13 2519.83 4115.13 2556.5 4105.96 2556.5 4105.96 2519.83ZM4115.13 2584 4115.14 2620.67 4105.97 2620.67 4105.97 2584ZM4115.14 2648.17 4115.14 2684.83 4105.98 2684.83 4105.97 2648.17ZM4115.15 2712.33 4115.15 2749 4105.98 2749 4105.98 2712.33ZM4115.15 2776.5 4115.15 2813.17 4105.99 2813.17 4105.98 2776.5ZM4115.16 2840.67 4115.16 2877.33 4105.99 2877.33 4105.99 2840.67ZM4115.16 2904.83 4115.17 2941.5 4106 2941.5 4106 2904.83ZM4115.17 2969 4115.17 3005.67 4106 3005.67 4106 2969ZM4115.17 3033.17 4115.18 3069.83 4106.01 3069.83 4106.01 3033.17ZM4115.18 3097.33 4115.18 3134 4106.02 3134 4106.01 3097.33ZM4115.19 3161.5 4115.19 3198.17 4106.02 3198.17 4106.02 3161.5ZM4115.19 3225.67 4115.19 3262.33 4106.03 3262.33 4106.02 3225.67ZM4115.2 3289.83 4115.2 3326.5 4106.03 3326.5 4106.03 3289.83ZM4115.2 3354 4115.21 3390.67 4106.04 3390.67 4106.04 3354ZM4115.21 3418.17 4115.21 3454.83 4106.04 3454.83 4106.04 3418.17ZM4115.21 3482.33 4115.22 3519 4106.05 3519 4106.05 3482.33ZM4115.22 3546.5 4115.22 3583.17 4106.06 3583.17 4106.05 3546.5ZM4115.22 3610.67 4115.23 3647.33 4106.06 3647.33 4106.06 3610.67ZM4115.23 3674.83 4115.23 3711.5 4106.07 3711.5 4106.06 3674.83ZM4115.24 3739 4115.24 3775.67 4106.07 3775.67 4106.07 3739ZM4115.24 3803.17 4115.24 3839.83 4106.08 3839.83 4106.07 3803.17ZM4115.25 3867.33 4115.25 3904 4106.08 3904 4106.08 3867.33ZM4115.25 3931.5 4115.26 3968.17 4106.09 3968.17 4106.09 3931.5ZM4115.26 3995.67 4115.26 4032.33 4106.09 4032.33 4106.09 3995.67ZM4115.26 4059.83 4115.27 4096.5 4106.1 4096.5 4106.1 4059.83ZM4115.27 4124 4115.27 4160.67 4106.11 4160.67 4106.1 4124ZM4115.28 4188.17 4115.28 4210.33 4106.11 4210.33 4106.11 4188.17ZM4124.44 4205.74 4110.7 4233.24 4096.94 4205.74Z" fill="#000000" fill-rule="nonzero" fill-opacity="1"/><rect x="3830.5" y="2853.5" width="534" height="744" stroke="#308B16" stroke-width="4.58333" stroke-linecap="butt" stroke-linejoin="miter" stroke-miterlimit="4" stroke-opacity="1" fill="#FFFFFF" fill-opacity="1"/><text fill="#000000" fill-opacity="1" font-family="Arial,Arial_MSFontService,sans-serif" font-style="normal" font-variant="normal" font-weight="400" font-stretch="normal" font-size="83" text-anchor="start" direction="ltr" writing-mode="lr-tb" unicode-bidi="normal" text-decoration="none" transform="matrix(1 0 0 1 3856.05 2956)">•</text><text fill="#000000" fill-opacity="1" font-family="MS Mincho,MS Mincho_MSFontService,sans-serif" font-style="normal" font-variant="normal" font-weight="400" font-stretch="normal" font-size="83" text-anchor="start" direction="ltr" writing-mode="lr-tb" unicode-bidi="normal" text-decoration="none" transform="matrix(1 0 0 1 3897.3 2956)">？？？</text><rect x="7835.5" y="2271.5" width="534" height="409" stroke="#308B16" stroke-width="4.58333" stroke-linecap="butt" stroke-linejoin="miter" stroke-miterlimit="4" stroke-opacity="1" fill="#BFE0FF" fill-opacity="1"/><text fill="#000000" fill-opacity="1" font-family="MS Mincho,MS Mincho_MSFontService,sans-serif" font-style="normal" font-variant="normal" font-weight="400" font-stretch="normal" font-size="83" text-anchor="start" direction="ltr" writing-mode="lr-tb" unicode-bidi="normal" text-decoration="none" transform="matrix(1 0 0 1 8019.8 2503)">巡視</text><rect x="7834.5" y="911.5" width="534" height="409" stroke="#308B16" stroke-width="4.58333" stroke-linecap="butt" stroke-linejoin="miter" stroke-miterlimit="4" stroke-opacity="1" fill="#CCF5C1" fill-opacity="1"/><text fill="#000000" fill-opacity="1" font-family="MS Gothic,MS Gothic_MSFontService,sans-serif" font-style="normal" font-variant="normal" font-weight="400" font-stretch="normal" font-size="92" text-anchor="start" direction="ltr" writing-mode="lr-tb" unicode-bidi="normal" text-decoration="none" transform="matrix(1 0 0 1 8009.5 1151)">消灯</text><rect x="2563.5" y="2261.5" width="535" height="409" stroke="#308B16" stroke-width="4.58333" stroke-linecap="butt" stroke-linejoin="miter" stroke-miterlimit="4" stroke-opacity="1" fill="#BFE0FF" fill-opacity="1"/><text fill="#000000" fill-opacity="1" font-family="MS Gothic,MS Gothic_MSFontService,sans-serif" font-style="normal" font-variant="normal" font-weight="400" font-stretch="normal" font-size="92" text-anchor="start" direction="ltr" writing-mode="lr-tb" unicode-bidi="normal" text-decoration="none" transform="matrix(1 0 0 1 2601.42 2450)">記録・引継</text><text fill="#000000" fill-opacity="1" font-family="MS Gothic,MS Gothic_MSFontService,sans-serif" font-style="normal" font-variant="normal" font-weight="400" font-stretch="normal" font-size="92" text-anchor="start" direction="ltr" writing-mode="lr-tb" unicode-bidi="normal" text-decoration="none" transform="matrix(1 0 0 1 2784.76 2555)">ぎ</text><rect x="4462.5" y="2261.5" width="535" height="409" stroke="#308B16" stroke-width="4.58333" stroke-linecap="butt" stroke-linejoin="miter" stroke-miterlimit="4" stroke-opacity="1" fill="#DCD9F2" fill-opacity="1"/><text fill="#000000" fill-opacity="1" font-family="MS Mincho,MS Mincho_MSFontService,sans-serif" font-style="normal" font-variant="normal" font-weight="400" font-stretch="normal" font-size="83" text-anchor="start" direction="ltr" writing-mode="lr-tb" unicode-bidi="normal" text-decoration="none" transform="matrix(1 0 0 1 4564.52 2493)">昼食配膳</text><rect x="5149.5" y="2261.5" width="535" height="409" stroke="#308B16" stroke-width="4.58333" stroke-linecap="butt" stroke-linejoin="miter" stroke-miterlimit="4" stroke-opacity="1" fill="#DCD9F2" fill-opacity="1"/><text fill="#000000" fill-opacity="1" font-family="MS Mincho,MS Mincho_MSFontService,sans-serif" font-style="normal" font-variant="normal" font-weight="400" font-stretch="normal" font-size="83" text-anchor="start" direction="ltr" writing-mode="lr-tb" unicode-bidi="normal" text-decoration="none" transform="matrix(1 0 0 1 5210.24 2352)">カンファレ</text><text fill="#000000" fill-opacity="1" font-family="MS Mincho,MS Mincho_MSFontService,sans-serif" font-style="normal" font-variant="normal" font-weight="400" font-stretch="normal" font-size="83" text-anchor="start" direction="ltr" writing-mode="lr-tb" unicode-bidi="normal" text-decoration="none" transform="matrix(1 0 0 1 5333.99 2443)">ンス</text><text fill="#000000" fill-opacity="1" font-family="MS Mincho,MS Mincho_MSFontService,sans-serif" font-style="normal" font-variant="normal" font-weight="400" font-stretch="normal" font-size="83" text-anchor="start" direction="ltr" writing-mode="lr-tb" unicode-bidi="normal" text-decoration="none" transform="matrix(1 0 0 1 5210.24 2550)">看護計画見</text><text fill="#000000" fill-opacity="1" font-family="MS Mincho,MS Mincho_MSFontService,sans-serif" font-style="normal" font-variant="normal" font-weight="400" font-stretch="normal" font-size="83" text-anchor="start" direction="ltr" writing-mode="lr-tb" unicode-bidi="normal" text-decoration="none" transform="matrix(1 0 0 1 5375.24 2641)">直</text></g></svg>
