<svg width="8296" height="4257" xmlns="http://www.w3.org/2000/svg" xmlns:xlink="http://www.w3.org/1999/xlink" xml:space="preserve" overflow="hidden"><defs><clipPath id="clip0"><rect x="242" y="550" width="8296" height="4257"/></clipPath></defs><g clip-path="url(#clip0)" transform="translate(-242 -550)"><path d="M248.853 557.215 8531.31 557.215 8531.31 788.24 248.853 788.24Z" fill="#308B16" fill-rule="evenodd" fill-opacity="1"/><path d="M248.853 788.24 1044.1 788.24 1044.1 1457.24 248.853 1457.24Z" fill="#FFFFFF" fill-rule="evenodd" fill-opacity="0"/><path d="M1044.1 788.24 8531.31 788.24 8531.31 1457.24 1044.1 1457.24Z" fill="#FFFFFF" fill-rule="evenodd" fill-opacity="0"/><path d="M248.853 1457.24 1044.1 1457.24 1044.1 2126.25 248.853 2126.25Z" fill="#FFFFFF" fill-rule="evenodd" fill-opacity="0"/><path d="M1044.1 1457.24 8531.31 1457.24 8531.31 2126.25 1044.1 2126.25Z" fill="#FFFFFF" fill-rule="evenodd" fill-opacity="0"/><path d="M248.853 2126.25 1044.1 2126.25 1044.1 2795.25 248.853 2795.25Z" fill="#FFFFFF" fill-rule="evenodd" fill-opacity="0"/><path d="M1044.1 2126.25 8531.31 2126.25 8531.31 2795.25 1044.1 2795.25Z" fill="#FFFFFF" fill-rule="evenodd" fill-opacity="0"/><path d="M248.853 2795.25 1044.1 2795.25 1044.1 3464.26 248.853 3464.26Z" fill="#FFFFFF" fill-rule="evenodd" fill-opacity="0"/><path d="M1044.1 2795.25 8531.31 2795.25 8531.31 3464.26 1044.1 3464.26Z" fill="#FFFFFF" fill-rule="evenodd" fill-opacity="0"/><path d="M248.853 3464.26 1044.1 3464.26 1044.1 4133.26 248.853 4133.26Z" fill="#FFFFFF" fill-rule="evenodd" fill-opacity="0"/><path d="M1044.1 3464.26 8531.31 3464.26 8531.31 4133.26 1044.1 4133.26Z" fill="#FFFFFF" fill-rule="evenodd" fill-opacity="0"/><path d="M248.853 4133.26 1044.1 4133.26 1044.1 4802.27 248.853 4802.27Z" fill="#FFFFFF" fill-rule="evenodd" fill-opacity="0"/><path d="M1044.1 4133.26 8531.31 4133.26 8531.31 4802.27 1044.1 4802.27Z" fill="#FFFFFF" fill-rule="evenodd" fill-opacity="0"/><path d="M1044.1 785.949 1044.1 4804.56" stroke="#000000" stroke-width="4.58333" stroke-linecap="butt" stroke-linejoin="round" stroke-miterlimit="10" stroke-opacity="1" fill="none" fill-rule="evenodd"/><path d="M246.561 788.24 8533.6 788.24" stroke="#000000" stroke-width="4.58333" stroke-linecap="butt" stroke-linejoin="round" stroke-miterlimit="10" stroke-opacity="1" fill="none" fill-rule="evenodd"/><path d="M246.561 1457.24 8533.6 1457.24" stroke="#000000" stroke-width="4.58333" stroke-linecap="butt" stroke-linejoin="round" stroke-miterlimit="10" stroke-dasharray="4.58333 13.75" stroke-opacity="1" fill="none" fill-rule="evenodd"/><path d="M246.561 2126.25 8533.6 2126.25" stroke="#000000" stroke-width="4.58333" stroke-linecap="butt" stroke-linejoin="round" stroke-miterlimit="10" stroke-dasharray="4.58333 13.75" stroke-opacity="1" fill="none" fill-rule="evenodd"/><path d="M246.561 2795.25 8533.6 2795.25" stroke="#000000" stroke-width="4.58333" stroke-linecap="butt" stroke-linejoin="round" stroke-miterlimit="10" stroke-dasharray="4.58333 13.75" stroke-opacity="1" fill="none" fill-rule="evenodd"/><path d="M246.561 3464.26 8533.6 3464.26" stroke="#000000" stroke-width="4.58333" stroke-linecap="butt" stroke-linejoin="round" stroke-miterlimit="10" stroke-dasharray="4.58333 13.75" stroke-opacity="1" fill="none" fill-rule="evenodd"/><path d="M246.561 4133.26 8533.6 4133.26" stroke="#000000" stroke-width="4.58333" stroke-linecap="butt" stroke-linejoin="round" stroke-miterlimit="10" stroke-dasharray="4.58333 13.75" stroke-opacity="1" fill="none" fill-rule="evenodd"/><path d="M248.853 554.923 248.853 4804.56" stroke="#000000" stroke-width="4.58333" stroke-linecap="butt" stroke-linejoin="round" stroke-miterlimit="10" stroke-opacity="1" fill="none" fill-rule="evenodd"/><path d="M8531.31 554.923 8531.31 4804.56" stroke="#000000" stroke-width="4.58333" stroke-linecap="butt" stroke-linejoin="round" stroke-miterlimit="10" stroke-opacity="1" fill="none" fill-rule="evenodd"/><path d="M246.561 557.215 8533.6 557.215" stroke="#000000" stroke-width="4.58333" stroke-linecap="butt" stroke-linejoin="round" stroke-miterlimit="10" stroke-opacity="1" fill="none" fill-rule="evenodd"/><path d="M246.561 4802.27 8533.6 4802.27" stroke="#000000" stroke-width="4.58333" stroke-linecap="butt" stroke-linejoin="round" stroke-miterlimit="10" stroke-opacity="1" fill="none" fill-rule="evenodd"/><text fill="#FFFFFF" fill-opacity="1" font-family="Hiragino Kaku Gothic ProN W3,Hiragino Kaku Gothic ProN W3_MSFontService,sans-serif" font-style="normal" font-variant="normal" font-weight="300" font-stretch="normal" font-size="128" text-anchor="start" direction="ltr" writing-mode="lr-tb" unicode-bidi="normal" text-decoration="none" transform="matrix(1 0 0 1 4133.41 721)">入院当日</text><text fill="#000000" fill-opacity="1" font-family="Hiragino Kaku Gothic ProN W3,Hiragino Kaku Gothic ProN W3_MSFontService,sans-serif" font-style="normal" font-variant="normal" font-weight="300" font-stretch="normal" font-size="128" text-anchor="start" direction="ltr" writing-mode="lr-tb" unicode-bidi="normal" text-decoration="none" transform="matrix(1 0 0 1 518.142 1171)">患者</text><text fill="#000000" fill-opacity="1" font-family="Hiragino Kaku Gothic ProN W3,Hiragino Kaku Gothic ProN W3_MSFontService,sans-serif" font-style="normal" font-variant="normal" font-weight="300" font-stretch="normal" font-size="128" text-anchor="start" direction="ltr" writing-mode="lr-tb" unicode-bidi="normal" text-decoration="none" transform="matrix(1 0 0 1 453.975 1840)">主治医</text><text fill="#000000" fill-opacity="1" font-family="Hiragino Kaku Gothic ProN W3,Hiragino Kaku Gothic ProN W3_MSFontService,sans-serif" font-style="normal" font-variant="normal" font-weight="300" font-stretch="normal" font-size="128" text-anchor="start" direction="ltr" writing-mode="lr-tb" unicode-bidi="normal" text-decoration="none" transform="matrix(1 0 0 1 453.975 2509)">看護師</text><text fill="#000000" fill-opacity="1" font-family="Hiragino Kaku Gothic ProN W3,Hiragino Kaku Gothic ProN W3_MSFontService,sans-serif" font-style="normal" font-variant="normal" font-weight="300" font-stretch="normal" font-size="128" text-anchor="start" direction="ltr" writing-mode="lr-tb" unicode-bidi="normal" text-decoration="none" transform="matrix(1 0 0 1 453.975 3178)">薬剤師</text><text fill="#000000" fill-opacity="1" font-family="Hiragino Kaku Gothic ProN W3,Hiragino Kaku Gothic ProN W3_MSFontService,sans-serif" font-style="normal" font-variant="normal" font-weight="300" font-stretch="normal" font-size="128" text-anchor="start" direction="ltr" writing-mode="lr-tb" unicode-bidi="normal" text-decoration="none" transform="matrix(1 0 0 1 518.142 3847)">事務</text><text fill="#000000" fill-opacity="1" font-family="Hiragino Kaku Gothic ProN W3,Hiragino Kaku Gothic ProN W3_MSFontService,sans-serif" font-style="normal" font-variant="normal" font-weight="300" font-stretch="normal" font-size="128" text-anchor="start" direction="ltr" writing-mode="lr-tb" unicode-bidi="normal" text-decoration="none" transform="matrix(1 0 0 1 389.809 4516)">システム</text><rect x="1293.5" y="908.5" width="774" height="409" stroke="#308B16" stroke-width="4.58333" stroke-linecap="butt" stroke-linejoin="miter" stroke-miterlimit="4" stroke-opacity="1" fill="#CCF5C1" fill-opacity="1"/><text fill="#000000" fill-opacity="1" font-family="MS Gothic,MS Gothic_MSFontService,sans-serif" font-style="normal" font-variant="normal" font-weight="400" font-stretch="normal" font-size="92" text-anchor="start" direction="ltr" writing-mode="lr-tb" unicode-bidi="normal" text-decoration="none" transform="matrix(1 0 0 1 1404.75 1148)">来院（入院）</text><rect x="1292.5" y="3603.5" width="774" height="409" stroke="#308B16" stroke-width="4.58333" stroke-linecap="butt" stroke-linejoin="miter" stroke-miterlimit="4" stroke-opacity="1" fill="#CCF5C1" fill-opacity="1"/><text fill="#000000" fill-opacity="1" font-family="MS Gothic,MS Gothic_MSFontService,sans-serif" font-style="normal" font-variant="normal" font-weight="400" font-stretch="normal" font-size="92" text-anchor="start" direction="ltr" writing-mode="lr-tb" unicode-bidi="normal" text-decoration="none" transform="matrix(1 0 0 1 1450.06 3842)">入院手続き</text><rect x="4339.5" y="2262.5" width="774" height="409" stroke="#308B16" stroke-width="4.58333" stroke-linecap="butt" stroke-linejoin="miter" stroke-miterlimit="4" stroke-opacity="1" fill="#CCF5C1" fill-opacity="1"/><text fill="#000000" fill-opacity="1" font-family="MS Gothic,MS Gothic_MSFontService,sans-serif" font-style="normal" font-variant="normal" font-weight="400" font-stretch="normal" font-size="92" text-anchor="start" direction="ltr" writing-mode="lr-tb" unicode-bidi="normal" text-decoration="none" transform="matrix(1 0 0 1 4542.4 2392)">看護計画</text><text fill="#000000" fill-opacity="1" font-family="MS Gothic,MS Gothic_MSFontService,sans-serif" font-style="normal" font-variant="normal" font-weight="400" font-stretch="normal" font-size="92" text-anchor="start" direction="ltr" writing-mode="lr-tb" unicode-bidi="normal" text-decoration="none" transform="matrix(1 0 0 1 4404.9 2507)">（たたき台）作</text><text fill="#000000" fill-opacity="1" font-family="MS Gothic,MS Gothic_MSFontService,sans-serif" font-style="normal" font-variant="normal" font-weight="400" font-stretch="normal" font-size="92" text-anchor="start" direction="ltr" writing-mode="lr-tb" unicode-bidi="normal" text-decoration="none" transform="matrix(1 0 0 1 4679.9 2608)">成</text><rect x="2601.5" y="1582.5" width="773" height="410" stroke="#308B16" stroke-width="4.58333" stroke-linecap="butt" stroke-linejoin="miter" stroke-miterlimit="4" stroke-dasharray="18.3333 13.75" stroke-opacity="1" fill="#FFFFFF" fill-opacity="1"/><text fill="#000000" fill-opacity="1" font-family="MS Gothic,MS Gothic_MSFontService,sans-serif" font-style="normal" font-variant="normal" font-weight="400" font-stretch="normal" font-size="92" text-anchor="start" direction="ltr" writing-mode="lr-tb" unicode-bidi="normal" text-decoration="none" transform="matrix(1 0 0 1 2895.95 1767)">問診</text><text fill="#000000" fill-opacity="1" font-family="MS Gothic,MS Gothic_MSFontService,sans-serif" font-style="normal" font-variant="normal" font-weight="400" font-stretch="normal" font-size="92" text-anchor="start" direction="ltr" writing-mode="lr-tb" unicode-bidi="normal" text-decoration="none" transform="matrix(1 0 0 1 2666.79 1877)">（レアケース）</text><path d="M4.58333-0.00108563 5.11925 2262.52-4.04742 2262.52-4.58333 0.00108563ZM14.2848 2257.92 0.541339 2285.42-13.2152 2257.93Z" fill="#000000" fill-rule="nonzero" fill-opacity="1" transform="matrix(-1 0 0 1 1680.04 1317.5)"/><path d="M2696.5 4294.5C2696.5 4325.98 2827.01 4351.5 2988 4351.5 3148.99 4351.5 3279.5 4325.98 3279.5 4294.5L3279.5 4636.5C3279.5 4667.98 3148.99 4693.5 2988 4693.5 2827.01 4693.5 2696.5 4667.98 2696.5 4636.5Z" fill="#F5E5CE" fill-rule="evenodd" fill-opacity="1"/><path d="M2696.5 4294.5C2696.5 4263.02 2827.01 4237.5 2988 4237.5 3148.99 4237.5 3279.5 4263.02 3279.5 4294.5 3279.5 4325.98 3148.99 4351.5 2988 4351.5 2827.01 4351.5 2696.5 4325.98 2696.5 4294.5Z" fill="#F9EFE2" fill-rule="evenodd" fill-opacity="1"/><path d="M3279.5 4294.5C3279.5 4325.98 3148.99 4351.5 2988 4351.5 2827.01 4351.5 2696.5 4325.98 2696.5 4294.5 2696.5 4263.02 2827.01 4237.5 2988 4237.5 3148.99 4237.5 3279.5 4263.02 3279.5 4294.5L3279.5 4636.5C3279.5 4667.98 3148.99 4693.5 2988 4693.5 2827.01 4693.5 2696.5 4667.98 2696.5 4636.5L2696.5 4294.5" stroke="#BC8027" stroke-width="4.58333" stroke-linecap="butt" stroke-linejoin="miter" stroke-miterlimit="4" stroke-opacity="1" fill="none" fill-rule="evenodd"/><text fill="#000000" fill-opacity="1" font-family="MS Gothic,MS Gothic_MSFontService,sans-serif" font-style="normal" font-variant="normal" font-weight="400" font-stretch="normal" font-size="83" text-anchor="start" direction="ltr" writing-mode="lr-tb" unicode-bidi="normal" text-decoration="none" transform="matrix(1 0 0 1 2781.37 4525)">電子カルテ</text><path d="M5288.5 4294.5C5288.5 4325.98 5418.79 4351.5 5579.5 4351.5 5740.21 4351.5 5870.5 4325.98 5870.5 4294.5L5870.5 4636.5C5870.5 4667.98 5740.21 4693.5 5579.5 4693.5 5418.79 4693.5 5288.5 4667.98 5288.5 4636.5Z" fill="#F5E5CE" fill-rule="evenodd" fill-opacity="1"/><path d="M5288.5 4294.5C5288.5 4263.02 5418.79 4237.5 5579.5 4237.5 5740.21 4237.5 5870.5 4263.02 5870.5 4294.5 5870.5 4325.98 5740.21 4351.5 5579.5 4351.5 5418.79 4351.5 5288.5 4325.98 5288.5 4294.5Z" fill="#F9EFE2" fill-rule="evenodd" fill-opacity="1"/><path d="M5870.5 4294.5C5870.5 4325.98 5740.21 4351.5 5579.5 4351.5 5418.79 4351.5 5288.5 4325.98 5288.5 4294.5 5288.5 4263.02 5418.79 4237.5 5579.5 4237.5 5740.21 4237.5 5870.5 4263.02 5870.5 4294.5L5870.5 4636.5C5870.5 4667.98 5740.21 4693.5 5579.5 4693.5 5418.79 4693.5 5288.5 4667.98 5288.5 4636.5L5288.5 4294.5" stroke="#BC8027" stroke-width="4.58333" stroke-linecap="butt" stroke-linejoin="miter" stroke-miterlimit="4" stroke-opacity="1" fill="none" fill-rule="evenodd"/><text fill="#000000" fill-opacity="1" font-family="MS Gothic,MS Gothic_MSFontService,sans-serif" font-style="normal" font-variant="normal" font-weight="400" font-stretch="normal" font-size="83" text-anchor="start" direction="ltr" writing-mode="lr-tb" unicode-bidi="normal" text-decoration="none" transform="matrix(1 0 0 1 5372.8 4525)">電子カルテ</text><path d="M0-4.58333 277.662-4.58333 277.662 1438.99 273.079 1434.4 523.186 1434.4 523.186 1443.57 268.495 1443.57 268.495 0 273.079 4.58333 0 4.58333ZM518.602 1425.24 546.102 1438.99 518.602 1452.74Z" fill="#000000" fill-rule="nonzero" fill-opacity="1" transform="matrix(1 -1.22465e-16 -1.22465e-16 -1 2066.5 3807.49)"/><path d="M4.58323-0.0313082 4.83369 36.6345-4.33276 36.6971-4.58323 0.0313082ZM5.02154 64.1339 5.27201 100.8-3.89445 100.862-4.14491 64.1965ZM5.45986 128.299 5.71032 164.965-3.45613 165.027-3.7066 128.362ZM5.89817 192.464 6.14864 229.13-3.01782 229.193-3.26828 192.527ZM6.33649 256.629 6.58695 293.295-2.5795 293.358-2.82997 256.692ZM6.7748 320.795 7.02527 357.46-2.14118 357.523-2.39165 320.857ZM7.21312 384.96 7.46358 421.626-1.70287 421.688-1.95334 385.022ZM7.65143 449.125 7.9019 485.791-1.26455 485.853-1.51502 449.188ZM8.08975 513.29 8.34021 549.956-0.826239 550.018-1.0767 513.353ZM8.52806 577.455 8.77853 614.121-0.387924 614.184-0.63839 577.518ZM8.96638 641.62 9.21684 678.286 0.0503914 678.349-0.200074 641.683ZM9.40469 705.786 9.65516 742.451 0.488706 742.514 0.238241 705.848ZM9.84301 769.951 10.0935 806.617 0.927022 806.679 0.676556 770.013ZM10.2813 834.116 10.5318 870.782 1.36534 870.844 1.11487 834.179ZM10.7196 898.281 10.9701 934.947 1.80365 935.01 1.55319 898.344ZM11.158 962.446 11.4084 999.112 2.24197 999.175 1.9915 962.509ZM11.5963 1026.61 11.8467 1063.28 2.68028 1063.34 2.42982 1026.67ZM12.0346 1090.78 12.2851 1127.44 3.1186 1127.51 2.86813 1090.84ZM12.4729 1154.94 12.7234 1191.61 3.55691 1191.67 3.30645 1155ZM12.9112 1219.11 13.1617 1255.77 3.99523 1255.84 3.74476 1219.17ZM13.3495 1283.27 13.6 1319.94 4.43354 1320 4.18308 1283.33ZM13.7878 1347.44 14.0383 1384.1 4.87186 1384.17 4.62139 1347.5ZM14.2262 1411.6 14.4766 1448.27 5.31017 1448.33 5.05971 1411.67ZM14.6645 1475.77 14.9149 1512.43 5.74849 1512.5 5.49802 1475.83ZM15.1028 1539.93 15.3533 1576.6 6.1868 1576.66 5.93634 1540ZM15.5411 1604.1 15.7916 1640.76 6.62512 1640.83 6.37465 1604.16ZM24.9299 1636.59 11.3681 1664.18-2.56942 1636.78Z" fill="#000000" fill-rule="nonzero" fill-opacity="1" transform="matrix(-1 0 0 1 2999.87 2573.5)"/><path d="M4.58333-0.00536468 4.62625 36.6613-4.54041 36.672-4.58333 0.00536468ZM4.65844 64.1613 4.70135 100.828-4.46531 100.839-4.50822 64.172ZM4.73354 128.328 4.77646 164.995-4.3902 165.005-4.43312 128.339ZM4.80865 192.494 4.85156 229.161-4.3151 229.172-4.35801 192.505ZM4.88375 256.661 4.92667 293.328-4.23999 293.339-4.28291 256.672ZM4.95886 320.828 5.00178 357.494-4.16489 357.505-4.2078 320.838ZM5.03396 384.994 5.07688 421.661-4.08978 421.672-4.1327 385.005ZM5.10907 449.161 5.15199 485.828-4.01467 485.838-4.05759 449.172ZM5.18417 513.328 5.22709 549.994-3.93957 550.005-3.98249 513.338ZM5.25928 577.494 5.3022 614.161-3.86446 614.172-3.90738 577.505ZM5.33439 641.661 5.3773 678.327-3.78936 678.338-3.83227 641.672ZM5.40949 705.827 5.45241 742.494-3.71425 742.505-3.75717 705.838ZM5.4846 769.994 5.52751 806.661-3.63915 806.671-3.68206 770.005ZM5.5597 834.161 5.60262 870.827-3.56404 870.838-3.60696 834.171ZM5.63481 898.327 5.67772 934.994-3.48894 935.005-3.53185 898.338ZM5.70991 962.494 5.75283 999.161-3.41383 999.171-3.45675 962.505ZM5.78502 1026.66 5.82794 1063.33-3.33872 1063.34-3.38164 1026.67ZM5.86012 1090.83 5.90304 1127.49-3.26362 1127.5-3.30654 1090.84ZM5.93523 1154.99 5.97815 1191.66-3.18851 1191.67-3.23143 1155ZM6.01033 1219.16 6.05325 1255.83-3.11341 1255.84-3.15633 1219.17ZM6.08544 1283.33 6.12836 1319.99-3.0383 1320-3.08122 1283.34ZM6.16055 1347.49 6.20346 1384.16-2.9632 1384.17-3.00611 1347.5ZM6.23565 1411.66 6.27857 1448.33-2.88809 1448.34-2.93101 1411.67ZM6.31076 1475.83 6.35367 1512.49-2.81299 1512.5-2.8559 1475.84ZM6.38586 1539.99 6.39706 1549.56-2.7696 1549.57-2.7808 1540ZM15.5584 1544.96 1.84055 1572.48-11.9416 1545Z" fill="#000000" fill-rule="nonzero" fill-opacity="1" transform="matrix(-1 0 0 1 5581.34 2665.5)"/><rect x="5194.5" y="2256.5" width="774" height="409" stroke="#308B16" stroke-width="4.58333" stroke-linecap="butt" stroke-linejoin="miter" stroke-miterlimit="4" stroke-opacity="1" fill="#CCF5C1" fill-opacity="1"/><text fill="#000000" fill-opacity="1" font-family="MS Gothic,MS Gothic_MSFontService,sans-serif" font-style="normal" font-variant="normal" font-weight="400" font-stretch="normal" font-size="92" text-anchor="start" direction="ltr" writing-mode="lr-tb" unicode-bidi="normal" text-decoration="none" transform="matrix(1 0 0 1 5443.42 2385)">せん妄</text><text fill="#000000" fill-opacity="1" font-family="MS Gothic,MS Gothic_MSFontService,sans-serif" font-style="normal" font-variant="normal" font-weight="400" font-stretch="normal" font-size="92" text-anchor="start" direction="ltr" writing-mode="lr-tb" unicode-bidi="normal" text-decoration="none" transform="matrix(1 0 0 1 5305.92 2495)">アセスメント</text><text fill="#000000" fill-opacity="1" font-family="MS Gothic,MS Gothic_MSFontService,sans-serif" font-style="normal" font-variant="normal" font-weight="400" font-stretch="normal" font-size="92" text-anchor="start" direction="ltr" writing-mode="lr-tb" unicode-bidi="normal" text-decoration="none" transform="matrix(1 0 0 1 5397.58 2601)">（記入）</text><rect x="6478.5" y="2228.5" width="773" height="409" stroke="#308B16" stroke-width="4.58333" stroke-linecap="butt" stroke-linejoin="miter" stroke-miterlimit="4" stroke-opacity="1" fill="#CCF5C1" fill-opacity="1"/><text fill="#000000" fill-opacity="1" font-family="MS Gothic,MS Gothic_MSFontService,sans-serif" font-style="normal" font-variant="normal" font-weight="400" font-stretch="normal" font-size="92" text-anchor="start" direction="ltr" writing-mode="lr-tb" unicode-bidi="normal" text-decoration="none" transform="matrix(1 0 0 1 6589.54 2464)">看護計画更新</text><path d="M7251.5 2428.92 7288.17 2428.92 7288.17 2438.08 7251.5 2438.08ZM7315.67 2428.92 7351.2 2428.92 7351.2 2438.08 7315.67 2438.08ZM7346.62 2419.75 7374.12 2433.5 7346.62 2447.25Z" fill="#000000" fill-rule="nonzero" fill-opacity="1"/><rect x="7374.5" y="2228.5" width="774" height="409" stroke="#308B16" stroke-width="4.58333" stroke-linecap="butt" stroke-linejoin="miter" stroke-miterlimit="4" stroke-opacity="1" fill="#CCF5C1" fill-opacity="1"/><text fill="#000000" fill-opacity="1" font-family="MS Gothic,MS Gothic_MSFontService,sans-serif" font-style="normal" font-variant="normal" font-weight="400" font-stretch="normal" font-size="92" text-anchor="start" direction="ltr" writing-mode="lr-tb" unicode-bidi="normal" text-decoration="none" transform="matrix(1 0 0 1 7485.76 2413)">看護計画承認</text><text fill="#000000" fill-opacity="1" font-family="Arial,Arial_MSFontService,sans-serif" font-style="normal" font-variant="normal" font-weight="400" font-stretch="normal" font-size="92" text-anchor="start" direction="ltr" writing-mode="lr-tb" unicode-bidi="normal" text-decoration="none" transform="matrix(1 0 0 1 7523.85 2519)">By</text><text fill="#000000" fill-opacity="1" font-family="MS Gothic,MS Gothic_MSFontService,sans-serif" font-style="normal" font-variant="normal" font-weight="400" font-stretch="normal" font-size="92" text-anchor="start" direction="ltr" writing-mode="lr-tb" unicode-bidi="normal" text-decoration="none" transform="matrix(1 0 0 1 7630.99 2519)">看護師長</text><rect x="2601.5" y="908.5" width="773" height="409" stroke="#308B16" stroke-width="4.58333" stroke-linecap="butt" stroke-linejoin="miter" stroke-miterlimit="4" stroke-opacity="1" fill="#CCF5C1" fill-opacity="1"/><text fill="#000000" fill-opacity="1" font-family="MS Gothic,MS Gothic_MSFontService,sans-serif" font-style="normal" font-variant="normal" font-weight="400" font-stretch="normal" font-size="92" text-anchor="start" direction="ltr" writing-mode="lr-tb" unicode-bidi="normal" text-decoration="none" transform="matrix(1 0 0 1 2850.12 1148)">病床へ</text><path d="M2983.92 1582.54 2983.92 1340.42 2993.08 1340.42 2993.08 1582.54ZM2974.75 1345 2988.5 1317.5 3002.25 1345Z" fill="#000000" fill-rule="nonzero" fill-opacity="1"/><rect x="5194.5" y="969.5" width="774" height="409" stroke="#308B16" stroke-width="4.58333" stroke-linecap="butt" stroke-linejoin="miter" stroke-miterlimit="4" stroke-opacity="1" fill="#CCF5C1" fill-opacity="1"/><text fill="#000000" fill-opacity="1" font-family="MS Gothic,MS Gothic_MSFontService,sans-serif" font-style="normal" font-variant="normal" font-weight="400" font-stretch="normal" font-size="92" text-anchor="start" direction="ltr" writing-mode="lr-tb" unicode-bidi="normal" text-decoration="none" transform="matrix(1 0 0 1 5489.25 1208)">応対</text><path d="M5576.92 2256.23 5576.92 1401.42 5586.08 1401.42 5586.08 2256.23ZM5567.75 1406 5581.5 1378.5 5595.25 1406Z" fill="#000000" fill-rule="nonzero" fill-opacity="1"/><rect x="2670.5" y="2847.5" width="774" height="814" stroke="#308B16" stroke-width="4.58333" stroke-linecap="butt" stroke-linejoin="miter" stroke-miterlimit="4" stroke-opacity="1" fill="#FFFFFF" fill-opacity="1"/><text fill="#000000" fill-opacity="1" font-family="Arial,Arial_MSFontService,sans-serif" font-style="normal" font-variant="normal" font-weight="400" font-stretch="normal" font-size="83" text-anchor="start" direction="ltr" writing-mode="lr-tb" unicode-bidi="normal" text-decoration="none" transform="matrix(1 0 0 1 2696.21 3281)">•</text><text fill="#000000" fill-opacity="1" font-family="MS Mincho,MS Mincho_MSFontService,sans-serif" font-style="normal" font-variant="normal" font-weight="400" font-stretch="normal" font-size="83" text-anchor="start" direction="ltr" writing-mode="lr-tb" unicode-bidi="normal" text-decoration="none" transform="matrix(1 0 0 1 2737.46 3281)">持参薬確認</text><rect x="5193.5" y="3142.5" width="773" height="686" stroke="#308B16" stroke-width="4.58333" stroke-linecap="butt" stroke-linejoin="miter" stroke-miterlimit="4" stroke-opacity="1" fill="#FFFFFF" fill-opacity="1"/><text fill="#000000" fill-opacity="1" font-family="Arial,Arial_MSFontService,sans-serif" font-style="normal" font-variant="normal" font-weight="400" font-stretch="normal" font-size="83" text-anchor="start" direction="ltr" writing-mode="lr-tb" unicode-bidi="normal" text-decoration="none" transform="matrix(1 0 0 1 5218.29 3287)">•</text><text fill="#000000" fill-opacity="1" font-family="MS Mincho,MS Mincho_MSFontService,sans-serif" font-style="normal" font-variant="normal" font-weight="400" font-stretch="normal" font-size="83" text-anchor="start" direction="ltr" writing-mode="lr-tb" unicode-bidi="normal" text-decoration="none" transform="matrix(1 0 0 1 5259.54 3287)">アセスメント結果</text><text fill="#000000" fill-opacity="1" font-family="Arial,Arial_MSFontService,sans-serif" font-style="normal" font-variant="normal" font-weight="400" font-stretch="normal" font-size="83" text-anchor="start" direction="ltr" writing-mode="lr-tb" unicode-bidi="normal" text-decoration="none" transform="matrix(1 0 0 1 5218.29 3394)">•</text><text fill="#000000" fill-opacity="1" font-family="MS Mincho,MS Mincho_MSFontService,sans-serif" font-style="normal" font-variant="normal" font-weight="400" font-stretch="normal" font-size="83" text-anchor="start" direction="ltr" writing-mode="lr-tb" unicode-bidi="normal" text-decoration="none" transform="matrix(1 0 0 1 5259.54 3394)">薬剤チェック（ベ</text><text fill="#000000" fill-opacity="1" font-family="MS Mincho,MS Mincho_MSFontService,sans-serif" font-style="normal" font-variant="normal" font-weight="400" font-stretch="normal" font-size="83" text-anchor="start" direction="ltr" writing-mode="lr-tb" unicode-bidi="normal" text-decoration="none" transform="matrix(1 0 0 1 5218.29 3493)">ンゾジアピン系が</text><text fill="#000000" fill-opacity="1" font-family="MS Mincho,MS Mincho_MSFontService,sans-serif" font-style="normal" font-variant="normal" font-weight="400" font-stretch="normal" font-size="83" text-anchor="start" direction="ltr" writing-mode="lr-tb" unicode-bidi="normal" text-decoration="none" transform="matrix(1 0 0 1 5218.29 3592)">含まれるか否か）</text><text fill="#000000" fill-opacity="1" font-family="MS Mincho,MS Mincho_MSFontService,sans-serif" font-style="normal" font-variant="normal" font-weight="400" font-stretch="normal" font-size="64" text-anchor="start" direction="ltr" writing-mode="lr-tb" unicode-bidi="normal" text-decoration="none" transform="matrix(1 0 0 1 5218.29 3672)">※</text><text fill="#000000" fill-opacity="1" font-family="MS Mincho,MS Mincho_MSFontService,sans-serif" font-style="normal" font-variant="normal" font-weight="400" font-stretch="normal" font-size="64" text-anchor="start" direction="ltr" writing-mode="lr-tb" unicode-bidi="normal" text-decoration="none" transform="matrix(1 0 0 1 5282.46 3672)">看護師主観のため間違</text><text fill="#000000" fill-opacity="1" font-family="MS Mincho,MS Mincho_MSFontService,sans-serif" font-style="normal" font-variant="normal" font-weight="400" font-stretch="normal" font-size="64" text-anchor="start" direction="ltr" writing-mode="lr-tb" unicode-bidi="normal" text-decoration="none" transform="matrix(1 0 0 1 5218.29 3743)">いの可能性あり</text><rect x="2612.5" y="2164.5" width="774" height="409" stroke="#308B16" stroke-width="4.58333" stroke-linecap="butt" stroke-linejoin="miter" stroke-miterlimit="4" stroke-opacity="1" fill="#CCF5C1" fill-opacity="1"/><text fill="#000000" fill-opacity="1" font-family="MS Gothic,MS Gothic_MSFontService,sans-serif" font-style="normal" font-variant="normal" font-weight="400" font-stretch="normal" font-size="92" text-anchor="start" direction="ltr" writing-mode="lr-tb" unicode-bidi="normal" text-decoration="none" transform="matrix(1 0 0 1 2815.66 2288)">入院面談</text><text fill="#000000" fill-opacity="1" font-family="MS Gothic,MS Gothic_MSFontService,sans-serif" font-style="normal" font-variant="normal" font-weight="400" font-stretch="normal" font-size="64" text-anchor="start" direction="ltr" writing-mode="lr-tb" unicode-bidi="normal" text-decoration="none" transform="matrix(1 0 0 1 2678.16 2374)">※</text><text fill="#000000" fill-opacity="1" font-family="MS Gothic,MS Gothic_MSFontService,sans-serif" font-style="normal" font-variant="normal" font-weight="400" font-stretch="normal" font-size="64" text-anchor="start" direction="ltr" writing-mode="lr-tb" unicode-bidi="normal" text-decoration="none" transform="matrix(1 0 0 1 2742.32 2374)">せん妄アセスメント</text><text fill="#000000" fill-opacity="1" font-family="MS Gothic,MS Gothic_MSFontService,sans-serif" font-style="normal" font-variant="normal" font-weight="400" font-stretch="normal" font-size="64" text-anchor="start" direction="ltr" writing-mode="lr-tb" unicode-bidi="normal" text-decoration="none" transform="matrix(1 0 0 1 2646.07 2451)">（ヒアリングのみ）を含</text><text fill="#000000" fill-opacity="1" font-family="MS Gothic,MS Gothic_MSFontService,sans-serif" font-style="normal" font-variant="normal" font-weight="400" font-stretch="normal" font-size="64" text-anchor="start" direction="ltr" writing-mode="lr-tb" unicode-bidi="normal" text-decoration="none" transform="matrix(1 0 0 1 2966.91 2525)">む</text><rect x="2635.5" y="3720.5" width="773" height="477" stroke="#308B16" stroke-width="4.58333" stroke-linecap="butt" stroke-linejoin="miter" stroke-miterlimit="4" stroke-opacity="1" fill="#DADCE0" fill-opacity="1"/><text fill="#000000" fill-opacity="1" font-family="MS Mincho,MS Mincho_MSFontService,sans-serif" font-style="normal" font-variant="normal" font-weight="400" font-stretch="normal" font-size="83" text-anchor="start" direction="ltr" writing-mode="lr-tb" unicode-bidi="normal" text-decoration="none" transform="matrix(1 0 0 1 2661.05 3846)">※</text><text fill="#000000" fill-opacity="1" font-family="MS Mincho,MS Mincho_MSFontService,sans-serif" font-style="normal" font-variant="normal" font-weight="400" font-stretch="normal" font-size="83" text-anchor="start" direction="ltr" writing-mode="lr-tb" unicode-bidi="normal" text-decoration="none" transform="matrix(1 0 0 1 2743.55 3846)">外来から期間が</text><text fill="#000000" fill-opacity="1" font-family="MS Mincho,MS Mincho_MSFontService,sans-serif" font-style="normal" font-variant="normal" font-weight="400" font-stretch="normal" font-size="83" text-anchor="start" direction="ltr" writing-mode="lr-tb" unicode-bidi="normal" text-decoration="none" transform="matrix(1 0 0 1 2661.05 3937)">空いた場合</text><text fill="#000000" fill-opacity="1" font-family="MS Mincho,MS Mincho_MSFontService,sans-serif" font-style="normal" font-variant="normal" font-weight="400" font-stretch="normal" font-size="83" text-anchor="start" direction="ltr" writing-mode="lr-tb" unicode-bidi="normal" text-decoration="none" transform="matrix(1 0 0 1 2661.05 4044)">入院翌日に血液検</text><text fill="#000000" fill-opacity="1" font-family="MS Mincho,MS Mincho_MSFontService,sans-serif" font-style="normal" font-variant="normal" font-weight="400" font-stretch="normal" font-size="83" text-anchor="start" direction="ltr" writing-mode="lr-tb" unicode-bidi="normal" text-decoration="none" transform="matrix(1 0 0 1 2661.05 4135)">査</text><path d="M2995.29 2164.52 2985.2 1983.64 2994.35 1983.13 3004.44 2164ZM2976.3 1988.72 2988.5 1960.5 3003.76 1987.19Z" fill="#000000" fill-rule="nonzero" fill-opacity="1"/><path d="M4550 2188.5C4550 2170 4565 2155 4583.5 2155L5074.5 2155C5093 2155 5108 2170 5108 2188.5L5108 2322.5C5108 2341 5093 2356 5074.5 2356L4583.5 2356C4565 2356 4550 2341 4550 2322.5Z" fill="#DCDEE0" fill-rule="evenodd" fill-opacity="1"/><text fill="#000000" fill-opacity="1" font-family="MS Gothic,MS Gothic_MSFontService,sans-serif" font-style="normal" font-variant="normal" font-weight="400" font-stretch="normal" font-size="83" text-anchor="start" direction="ltr" writing-mode="lr-tb" unicode-bidi="normal" text-decoration="none" transform="matrix(1 0 0 1 4746.93 2287)">病床</text><path d="M5632 2154.5C5632 2136 5647 2121 5665.5 2121L6156.5 2121C6175 2121 6190 2136 6190 2154.5L6190 2288.5C6190 2307 6175 2322 6156.5 2322L5665.5 2322C5647 2322 5632 2307 5632 2288.5Z" fill="#DCDEE0" fill-rule="evenodd" fill-opacity="1"/><text fill="#000000" fill-opacity="1" font-family="MS Gothic,MS Gothic_MSFontService,sans-serif" font-style="normal" font-variant="normal" font-weight="400" font-stretch="normal" font-size="83" text-anchor="start" direction="ltr" writing-mode="lr-tb" unicode-bidi="normal" text-decoration="none" transform="matrix(1 0 0 1 5705 2207)">ナースステ</text><text fill="#000000" fill-opacity="1" font-family="MS Gothic,MS Gothic_MSFontService,sans-serif" font-style="normal" font-variant="normal" font-weight="400" font-stretch="normal" font-size="83" text-anchor="start" direction="ltr" writing-mode="lr-tb" unicode-bidi="normal" text-decoration="none" transform="matrix(1 0 0 1 5746.25 2302)">ーション</text><path d="M6871 2192.5C6871 2174 6886 2159 6904.5 2159L7395.5 2159C7414 2159 7429 2174 7429 2192.5L7429 2326.5C7429 2345 7414 2360 7395.5 2360L6904.5 2360C6886 2360 6871 2345 6871 2326.5Z" fill="#DCDEE0" fill-rule="evenodd" fill-opacity="1"/><text fill="#000000" fill-opacity="1" font-family="MS Gothic,MS Gothic_MSFontService,sans-serif" font-style="normal" font-variant="normal" font-weight="400" font-stretch="normal" font-size="83" text-anchor="start" direction="ltr" writing-mode="lr-tb" unicode-bidi="normal" text-decoration="none" transform="matrix(1 0 0 1 6943.91 2246)">ナースステ</text><text fill="#000000" fill-opacity="1" font-family="MS Gothic,MS Gothic_MSFontService,sans-serif" font-style="normal" font-variant="normal" font-weight="400" font-stretch="normal" font-size="83" text-anchor="start" direction="ltr" writing-mode="lr-tb" unicode-bidi="normal" text-decoration="none" transform="matrix(1 0 0 1 6985.16 2341)">ーション</text><path d="M3374.5 1108.92 3899.74 1108.92 3899.74 2240.06 3890.58 2240.06 3890.58 1113.5 3895.16 1118.08 3374.5 1118.08ZM3908.91 2235.48 3895.16 2262.98 3881.41 2235.48Z" fill="#000000" fill-rule="nonzero" fill-opacity="1"/><rect x="3508.5" y="2262.5" width="774" height="409" stroke="#308B16" stroke-width="4.58333" stroke-linecap="butt" stroke-linejoin="miter" stroke-miterlimit="4" stroke-opacity="1" fill="#CCF5C1" fill-opacity="1"/><text fill="#000000" fill-opacity="1" font-family="MS Gothic,MS Gothic_MSFontService,sans-serif" font-style="normal" font-variant="normal" font-weight="400" font-stretch="normal" font-size="92" text-anchor="start" direction="ltr" writing-mode="lr-tb" unicode-bidi="normal" text-decoration="none" transform="matrix(1 0 0 1 3620.04 2502)">バイタル測定</text><path d="M3869 2204.33C3869 2185.92 3883.92 2171 3902.33 2171L4393.67 2171C4412.08 2171 4427 2185.92 4427 2204.33L4427 2337.67C4427 2356.08 4412.08 2371 4393.67 2371L3902.33 2371C3883.92 2371 3869 2356.08 3869 2337.67Z" fill="#DCDEE0" fill-rule="evenodd" fill-opacity="1"/><text fill="#000000" fill-opacity="1" font-family="MS Gothic,MS Gothic_MSFontService,sans-serif" font-style="normal" font-variant="normal" font-weight="400" font-stretch="normal" font-size="83" text-anchor="start" direction="ltr" writing-mode="lr-tb" unicode-bidi="normal" text-decoration="none" transform="matrix(1 0 0 1 4065.53 2302)">病床</text><path d="M3915.08 2675.48 3915.23 2712.15 3906.06 2712.18 3905.92 2675.52ZM3915.34 2739.65 3915.49 2776.31 3906.32 2776.35 3906.18 2739.68ZM3915.6 2803.81 3915.75 2840.48 3906.58 2840.52 3906.43 2803.85ZM3915.86 2867.98 3916.01 2904.65 3906.84 2904.68 3906.69 2868.02ZM3916.12 2932.15 3916.27 2968.81 3907.1 2968.85 3906.95 2932.18ZM3916.38 2996.31 3916.52 3032.98 3907.36 3033.02 3907.21 2996.35ZM3916.64 3060.48 3916.78 3097.14 3907.62 3097.18 3907.47 3060.52ZM3916.89 3124.64 3917.04 3161.31 3907.88 3161.35 3907.73 3124.68ZM3917.15 3188.81 3917.3 3225.48 3908.13 3225.51 3907.99 3188.85ZM3917.41 3252.98 3917.56 3289.64 3908.39 3289.68 3908.25 3253.01ZM3917.67 3317.14 3917.82 3353.81 3908.65 3353.85 3908.5 3317.18ZM3917.93 3381.31 3918.08 3417.98 3908.91 3418.01 3908.76 3381.35ZM3918.19 3445.48 3918.34 3482.14 3909.17 3482.18 3909.02 3445.51ZM3918.45 3509.64 3918.59 3546.31 3909.43 3546.34 3909.28 3509.68ZM3918.71 3573.81 3918.85 3610.47 3909.69 3610.51 3909.54 3573.84ZM3918.96 3637.97 3919.11 3674.64 3909.95 3674.68 3909.8 3638.01ZM3919.22 3702.14 3919.37 3738.81 3910.2 3738.84 3910.06 3702.18ZM3919.48 3766.31 3919.63 3802.97 3910.46 3803.01 3910.31 3766.34ZM3919.74 3830.47 3919.89 3867.14 3910.72 3867.18 3910.57 3830.51ZM3920 3894.64 3920.15 3931.3 3910.98 3931.34 3910.83 3894.68ZM3920.26 3958.8 3920.41 3995.47 3911.24 3995.51 3911.09 3958.84ZM3920.52 4022.97 3920.66 4059.64 3911.5 4059.67 3911.35 4023.01ZM3920.78 4087.14 3920.92 4123.8 3911.76 4123.84 3911.61 4087.17ZM3921.03 4151.3 3921.18 4187.97 3912.02 4188.01 3911.87 4151.34ZM3930.42 4205.38 3916.78 4232.93 3902.92 4205.49Z" fill="#000000" fill-rule="nonzero" fill-opacity="1"/><rect x="3583.5" y="2850.5" width="773" height="814" stroke="#308B16" stroke-width="4.58333" stroke-linecap="butt" stroke-linejoin="miter" stroke-miterlimit="4" stroke-opacity="1" fill="#FFFFFF" fill-opacity="1"/><text fill="#000000" fill-opacity="1" font-family="Arial,Arial_MSFontService,sans-serif" font-style="normal" font-variant="normal" font-weight="400" font-stretch="normal" font-size="83" text-anchor="start" direction="ltr" writing-mode="lr-tb" unicode-bidi="normal" text-decoration="none" transform="matrix(1 0 0 1 3609.14 3284)">•</text><text fill="#000000" fill-opacity="1" font-family="MS Mincho,MS Mincho_MSFontService,sans-serif" font-style="normal" font-variant="normal" font-weight="400" font-stretch="normal" font-size="83" text-anchor="start" direction="ltr" writing-mode="lr-tb" unicode-bidi="normal" text-decoration="none" transform="matrix(1 0 0 1 3650.39 3284)">バイタル</text><path d="M3625.5 4289.5C3625.5 4320.98 3756.01 4346.5 3917 4346.5 4077.99 4346.5 4208.5 4320.98 4208.5 4289.5L4208.5 4631.5C4208.5 4662.98 4077.99 4688.5 3917 4688.5 3756.01 4688.5 3625.5 4662.98 3625.5 4631.5Z" fill="#F5E5CE" fill-rule="evenodd" fill-opacity="1"/><path d="M3625.5 4289.5C3625.5 4258.02 3756.01 4232.5 3917 4232.5 4077.99 4232.5 4208.5 4258.02 4208.5 4289.5 4208.5 4320.98 4077.99 4346.5 3917 4346.5 3756.01 4346.5 3625.5 4320.98 3625.5 4289.5Z" fill="#F9EFE2" fill-rule="evenodd" fill-opacity="1"/><path d="M4208.5 4289.5C4208.5 4320.98 4077.99 4346.5 3917 4346.5 3756.01 4346.5 3625.5 4320.98 3625.5 4289.5 3625.5 4258.02 3756.01 4232.5 3917 4232.5 4077.99 4232.5 4208.5 4258.02 4208.5 4289.5L4208.5 4631.5C4208.5 4662.98 4077.99 4688.5 3917 4688.5 3756.01 4688.5 3625.5 4662.98 3625.5 4631.5L3625.5 4289.5" stroke="#BC8027" stroke-width="4.58333" stroke-linecap="butt" stroke-linejoin="miter" stroke-miterlimit="4" stroke-opacity="1" fill="none" fill-rule="evenodd"/><text fill="#000000" fill-opacity="1" font-family="MS Gothic,MS Gothic_MSFontService,sans-serif" font-style="normal" font-variant="normal" font-weight="400" font-stretch="normal" font-size="83" text-anchor="start" direction="ltr" writing-mode="lr-tb" unicode-bidi="normal" text-decoration="none" transform="matrix(1 0 0 1 3710.09 4520)">電子カルテ</text></g></svg>