<svg width="8296" height="4257" xmlns="http://www.w3.org/2000/svg" xmlns:xlink="http://www.w3.org/1999/xlink" xml:space="preserve" overflow="hidden"><defs><clipPath id="clip0"><rect x="242" y="550" width="8296" height="4257"/></clipPath></defs><g clip-path="url(#clip0)" transform="translate(-242 -550)"><path d="M248.853 557.215 8531.31 557.215 8531.31 788.24 248.853 788.24Z" fill="#308B16" fill-rule="evenodd" fill-opacity="1"/><path d="M248.853 788.24 1044.1 788.24 1044.1 1457.24 248.853 1457.24Z" fill="#FFFFFF" fill-rule="evenodd" fill-opacity="0"/><path d="M1044.1 788.24 8531.31 788.24 8531.31 1457.24 1044.1 1457.24Z" fill="#FFFFFF" fill-rule="evenodd" fill-opacity="0"/><path d="M248.853 1457.24 1044.1 1457.24 1044.1 2126.25 248.853 2126.25Z" fill="#FFFFFF" fill-rule="evenodd" fill-opacity="0"/><path d="M1044.1 1457.24 8531.31 1457.24 8531.31 2126.25 1044.1 2126.25Z" fill="#FFFFFF" fill-rule="evenodd" fill-opacity="0"/><path d="M248.853 2126.25 1044.1 2126.25 1044.1 2795.25 248.853 2795.25Z" fill="#FFFFFF" fill-rule="evenodd" fill-opacity="0"/><path d="M1044.1 2126.25 8531.31 2126.25 8531.31 2795.25 1044.1 2795.25Z" fill="#FFFFFF" fill-rule="evenodd" fill-opacity="0"/><path d="M248.853 2795.25 1044.1 2795.25 1044.1 3464.26 248.853 3464.26Z" fill="#FFFFFF" fill-rule="evenodd" fill-opacity="0"/><path d="M1044.1 2795.25 8531.31 2795.25 8531.31 3464.26 1044.1 3464.26Z" fill="#FFFFFF" fill-rule="evenodd" fill-opacity="0"/><path d="M248.853 3464.26 1044.1 3464.26 1044.1 4133.26 248.853 4133.26Z" fill="#FFFFFF" fill-rule="evenodd" fill-opacity="0"/><path d="M1044.1 3464.26 8531.31 3464.26 8531.31 4133.26 1044.1 4133.26Z" fill="#FFFFFF" fill-rule="evenodd" fill-opacity="0"/><path d="M248.853 4133.26 1044.1 4133.26 1044.1 4802.27 248.853 4802.27Z" fill="#FFFFFF" fill-rule="evenodd" fill-opacity="0"/><path d="M1044.1 4133.26 8531.31 4133.26 8531.31 4802.27 1044.1 4802.27Z" fill="#FFFFFF" fill-rule="evenodd" fill-opacity="0"/><path d="M1044.1 785.949 1044.1 4804.56" stroke="#000000" stroke-width="4.58333" stroke-linecap="butt" stroke-linejoin="round" stroke-miterlimit="10" stroke-opacity="1" fill="none" fill-rule="evenodd"/><path d="M246.561 788.24 8533.6 788.24" stroke="#000000" stroke-width="4.58333" stroke-linecap="butt" stroke-linejoin="round" stroke-miterlimit="10" stroke-opacity="1" fill="none" fill-rule="evenodd"/><path d="M246.561 1457.24 8533.6 1457.24" stroke="#000000" stroke-width="4.58333" stroke-linecap="butt" stroke-linejoin="round" stroke-miterlimit="10" stroke-dasharray="4.58333 13.75" stroke-opacity="1" fill="none" fill-rule="evenodd"/><path d="M246.561 2126.25 8533.6 2126.25" stroke="#000000" stroke-width="4.58333" stroke-linecap="butt" stroke-linejoin="round" stroke-miterlimit="10" stroke-dasharray="4.58333 13.75" stroke-opacity="1" fill="none" fill-rule="evenodd"/><path d="M246.561 2795.25 8533.6 2795.25" stroke="#000000" stroke-width="4.58333" stroke-linecap="butt" stroke-linejoin="round" stroke-miterlimit="10" stroke-dasharray="4.58333 13.75" stroke-opacity="1" fill="none" fill-rule="evenodd"/><path d="M246.561 3464.26 8533.6 3464.26" stroke="#000000" stroke-width="4.58333" stroke-linecap="butt" stroke-linejoin="round" stroke-miterlimit="10" stroke-dasharray="4.58333 13.75" stroke-opacity="1" fill="none" fill-rule="evenodd"/><path d="M246.561 4133.26 8533.6 4133.26" stroke="#000000" stroke-width="4.58333" stroke-linecap="butt" stroke-linejoin="round" stroke-miterlimit="10" stroke-dasharray="4.58333 13.75" stroke-opacity="1" fill="none" fill-rule="evenodd"/><path d="M248.853 554.923 248.853 4804.56" stroke="#000000" stroke-width="4.58333" stroke-linecap="butt" stroke-linejoin="round" stroke-miterlimit="10" stroke-opacity="1" fill="none" fill-rule="evenodd"/><path d="M8531.31 554.923 8531.31 4804.56" stroke="#000000" stroke-width="4.58333" stroke-linecap="butt" stroke-linejoin="round" stroke-miterlimit="10" stroke-opacity="1" fill="none" fill-rule="evenodd"/><path d="M246.561 557.215 8533.6 557.215" stroke="#000000" stroke-width="4.58333" stroke-linecap="butt" stroke-linejoin="round" stroke-miterlimit="10" stroke-opacity="1" fill="none" fill-rule="evenodd"/><path d="M246.561 4802.27 8533.6 4802.27" stroke="#000000" stroke-width="4.58333" stroke-linecap="butt" stroke-linejoin="round" stroke-miterlimit="10" stroke-opacity="1" fill="none" fill-rule="evenodd"/><text fill="#FFFFFF" fill-opacity="1" font-family="Hiragino Kaku Gothic ProN W3,Hiragino Kaku Gothic ProN W3_MSFontService,sans-serif" font-style="normal" font-variant="normal" font-weight="300" font-stretch="normal" font-size="128" text-anchor="start" direction="ltr" writing-mode="lr-tb" unicode-bidi="normal" text-decoration="none" transform="matrix(1 0 0 1 4197.58 721)">入院前</text><text fill="#000000" fill-opacity="1" font-family="Hiragino Kaku Gothic ProN W3,Hiragino Kaku Gothic ProN W3_MSFontService,sans-serif" font-style="normal" font-variant="normal" font-weight="300" font-stretch="normal" font-size="128" text-anchor="start" direction="ltr" writing-mode="lr-tb" unicode-bidi="normal" text-decoration="none" transform="matrix(1 0 0 1 518.142 1171)">患者</text><text fill="#000000" fill-opacity="1" font-family="Hiragino Kaku Gothic ProN W3,Hiragino Kaku Gothic ProN W3_MSFontService,sans-serif" font-style="normal" font-variant="normal" font-weight="300" font-stretch="normal" font-size="128" text-anchor="start" direction="ltr" writing-mode="lr-tb" unicode-bidi="normal" text-decoration="none" transform="matrix(1 0 0 1 453.975 1840)">主治医</text><text fill="#000000" fill-opacity="1" font-family="Hiragino Kaku Gothic ProN W3,Hiragino Kaku Gothic ProN W3_MSFontService,sans-serif" font-style="normal" font-variant="normal" font-weight="300" font-stretch="normal" font-size="128" text-anchor="start" direction="ltr" writing-mode="lr-tb" unicode-bidi="normal" text-decoration="none" transform="matrix(1 0 0 1 453.975 2509)">看護師</text><text fill="#000000" fill-opacity="1" font-family="Hiragino Kaku Gothic ProN W3,Hiragino Kaku Gothic ProN W3_MSFontService,sans-serif" font-style="normal" font-variant="normal" font-weight="300" font-stretch="normal" font-size="128" text-anchor="start" direction="ltr" writing-mode="lr-tb" unicode-bidi="normal" text-decoration="none" transform="matrix(1 0 0 1 453.975 3178)">薬剤師</text><text fill="#000000" fill-opacity="1" font-family="Hiragino Kaku Gothic ProN W3,Hiragino Kaku Gothic ProN W3_MSFontService,sans-serif" font-style="normal" font-variant="normal" font-weight="300" font-stretch="normal" font-size="128" text-anchor="start" direction="ltr" writing-mode="lr-tb" unicode-bidi="normal" text-decoration="none" transform="matrix(1 0 0 1 518.142 3847)">事務</text><text fill="#000000" fill-opacity="1" font-family="Hiragino Kaku Gothic ProN W3,Hiragino Kaku Gothic ProN W3_MSFontService,sans-serif" font-style="normal" font-variant="normal" font-weight="300" font-stretch="normal" font-size="128" text-anchor="start" direction="ltr" writing-mode="lr-tb" unicode-bidi="normal" text-decoration="none" transform="matrix(1 0 0 1 389.809 4516)">システム</text><rect x="1293.5" y="908.5" width="774" height="409" stroke="#308B16" stroke-width="4.58333" stroke-linecap="butt" stroke-linejoin="miter" stroke-miterlimit="4" stroke-opacity="1" fill="#CCF5C1" fill-opacity="1"/><text fill="#000000" fill-opacity="1" font-family="MS Gothic,MS Gothic_MSFontService,sans-serif" font-style="normal" font-variant="normal" font-weight="400" font-stretch="normal" font-size="92" text-anchor="start" direction="ltr" writing-mode="lr-tb" unicode-bidi="normal" text-decoration="none" transform="matrix(1 0 0 1 1404.75 1148)">来院（外来）</text><rect x="1292.5" y="1588.5" width="774" height="409" stroke="#308B16" stroke-width="4.58333" stroke-linecap="butt" stroke-linejoin="miter" stroke-miterlimit="4" stroke-opacity="1" fill="#CCF5C1" fill-opacity="1"/><text fill="#000000" fill-opacity="1" font-family="MS Gothic,MS Gothic_MSFontService,sans-serif" font-style="normal" font-variant="normal" font-weight="400" font-stretch="normal" font-size="92" text-anchor="start" direction="ltr" writing-mode="lr-tb" unicode-bidi="normal" text-decoration="none" transform="matrix(1 0 0 1 1495.89 1827)">外来問診</text><rect x="2612.5" y="1588.5" width="774" height="409" stroke="#308B16" stroke-width="4.58333" stroke-linecap="butt" stroke-linejoin="miter" stroke-miterlimit="4" stroke-opacity="1" fill="#CCF5C1" fill-opacity="1"/><text fill="#000000" fill-opacity="1" font-family="MS Gothic,MS Gothic_MSFontService,sans-serif" font-style="normal" font-variant="normal" font-weight="400" font-stretch="normal" font-size="92" text-anchor="start" direction="ltr" writing-mode="lr-tb" unicode-bidi="normal" text-decoration="none" transform="matrix(1 0 0 1 2815.66 1827)">入院指示</text><rect x="2612.5" y="908.5" width="774" height="409" stroke="#308B16" stroke-width="4.58333" stroke-linecap="butt" stroke-linejoin="miter" stroke-miterlimit="4" stroke-opacity="1" fill="#CCF5C1" fill-opacity="1"/><text fill="#000000" fill-opacity="1" font-family="MS Gothic,MS Gothic_MSFontService,sans-serif" font-style="normal" font-variant="normal" font-weight="400" font-stretch="normal" font-size="92" text-anchor="start" direction="ltr" writing-mode="lr-tb" unicode-bidi="normal" text-decoration="none" transform="matrix(1 0 0 1 2815.66 1148)">入院同意</text><path d="M3386.5 1787.92 3707.23 1787.92 3707.23 3807.58 3702.65 3803 3995.87 3803 3995.87 3812.16 3698.07 3812.16 3698.07 1792.5 3702.65 1797.08 3386.5 1797.08ZM3991.28 3793.83 4018.78 3807.58 3991.28 3821.33Z" fill="#000000" fill-rule="nonzero" fill-opacity="1"/><path d="M2066.5 1787.92 2589.69 1787.92 2589.69 1797.08 2066.5 1797.08ZM2585.1 1778.75 2612.6 1792.5 2585.1 1806.25Z" fill="#000000" fill-rule="nonzero" fill-opacity="1"/><rect x="4018.5" y="2262.5" width="774" height="409" stroke="#308B16" stroke-width="4.58333" stroke-linecap="butt" stroke-linejoin="miter" stroke-miterlimit="4" stroke-opacity="1" fill="#CCF5C1" fill-opacity="1"/><text fill="#000000" fill-opacity="1" font-family="MS Gothic,MS Gothic_MSFontService,sans-serif" font-style="normal" font-variant="normal" font-weight="400" font-stretch="normal" font-size="64" text-anchor="start" direction="ltr" writing-mode="lr-tb" unicode-bidi="normal" text-decoration="none" transform="matrix(1 0 0 1 4116.14 2414)">オリエンテーション</text><text fill="#000000" fill-opacity="1" font-family="MS Gothic,MS Gothic_MSFontService,sans-serif" font-style="normal" font-variant="normal" font-weight="700" font-stretch="normal" font-size="64" text-anchor="start" direction="ltr" writing-mode="lr-tb" unicode-bidi="normal" text-decoration="underline" transform="matrix(1 0 0 1 4116.14 2488)">リスクアセスメント</text><text fill="#000000" fill-opacity="1" font-family="MS Mincho,MS Mincho_MSFontService,sans-serif" font-style="normal" font-variant="normal" font-weight="400" font-stretch="normal" font-size="64" text-anchor="start" direction="ltr" writing-mode="lr-tb" unicode-bidi="normal" text-decoration="none" transform="matrix(1 0 0 1 4051.97 2565)">退院支援スクリーニング</text><rect x="4018.5" y="3603.5" width="774" height="409" stroke="#308B16" stroke-width="4.58333" stroke-linecap="butt" stroke-linejoin="miter" stroke-miterlimit="4" stroke-opacity="1" fill="#CCF5C1" fill-opacity="1"/><text fill="#000000" fill-opacity="1" font-family="MS Gothic,MS Gothic_MSFontService,sans-serif" font-style="normal" font-variant="normal" font-weight="400" font-stretch="normal" font-size="92" text-anchor="start" direction="ltr" writing-mode="lr-tb" unicode-bidi="normal" text-decoration="none" transform="matrix(1 0 0 1 4221.55 3842)">入院予約</text><path d="M2994.92 1587.84 2994.92 1340.42 3004.08 1340.42 3004.08 1587.84ZM2985.75 1345 2999.5 1317.5 3013.25 1345Z" fill="#000000" fill-rule="nonzero" fill-opacity="1"/><path d="M3386.5 1787.92 3707.23 1787.92 3707.23 2467.01 3702.65 2462.42 3995.87 2462.42 3995.87 2471.59 3698.07 2471.59 3698.07 1792.5 3702.65 1797.08 3386.5 1797.08ZM3991.28 2453.26 4018.78 2467.01 3991.28 2480.76Z" fill="#000000" fill-rule="nonzero" fill-opacity="1"/><rect x="4015.5" y="908.5" width="774" height="409" stroke="#308B16" stroke-width="4.58333" stroke-linecap="butt" stroke-linejoin="miter" stroke-miterlimit="4" stroke-opacity="1" fill="#CCF5C1" fill-opacity="1"/><text fill="#000000" fill-opacity="1" font-family="MS Gothic,MS Gothic_MSFontService,sans-serif" font-style="normal" font-variant="normal" font-weight="400" font-stretch="normal" font-size="92" text-anchor="start" direction="ltr" writing-mode="lr-tb" unicode-bidi="normal" text-decoration="none" transform="matrix(1 0 0 1 4310.09 1148)">応対</text><path d="M4401.06 2262.48 4397.99 1340.43 4407.16 1340.4 4410.22 2262.45ZM4388.84 1345.05 4402.5 1317.5 4416.34 1344.95Z" fill="#000000" fill-rule="nonzero" fill-opacity="1"/><path d="M4.58332-0.00917766 5.07877 247.419-4.08787 247.437-4.58332 0.00917766ZM14.2362 242.817 0.541339 270.344-13.2637 242.872Z" fill="#000000" fill-rule="nonzero" fill-opacity="1" transform="matrix(-1 0 0 1 1680.04 1317.5)"/><path d="M1378.5 4294.5C1378.5 4325.98 1509.01 4351.5 1670 4351.5 1830.99 4351.5 1961.5 4325.98 1961.5 4294.5L1961.5 4636.5C1961.5 4667.98 1830.99 4693.5 1670 4693.5 1509.01 4693.5 1378.5 4667.98 1378.5 4636.5Z" fill="#F5E5CE" fill-rule="evenodd" fill-opacity="1"/><path d="M1378.5 4294.5C1378.5 4263.02 1509.01 4237.5 1670 4237.5 1830.99 4237.5 1961.5 4263.02 1961.5 4294.5 1961.5 4325.98 1830.99 4351.5 1670 4351.5 1509.01 4351.5 1378.5 4325.98 1378.5 4294.5Z" fill="#F9EFE2" fill-rule="evenodd" fill-opacity="1"/><path d="M1961.5 4294.5C1961.5 4325.98 1830.99 4351.5 1670 4351.5 1509.01 4351.5 1378.5 4325.98 1378.5 4294.5 1378.5 4263.02 1509.01 4237.5 1670 4237.5 1830.99 4237.5 1961.5 4263.02 1961.5 4294.5L1961.5 4636.5C1961.5 4667.98 1830.99 4693.5 1670 4693.5 1509.01 4693.5 1378.5 4667.98 1378.5 4636.5L1378.5 4294.5" stroke="#BC8027" stroke-width="4.58333" stroke-linecap="butt" stroke-linejoin="miter" stroke-miterlimit="4" stroke-opacity="1" fill="none" fill-rule="evenodd"/><text fill="#000000" fill-opacity="1" font-family="MS Gothic,MS Gothic_MSFontService,sans-serif" font-style="normal" font-variant="normal" font-weight="400" font-stretch="normal" font-size="83" text-anchor="start" direction="ltr" writing-mode="lr-tb" unicode-bidi="normal" text-decoration="none" transform="matrix(1 0 0 1 1463.16 4525)">電子カルテ</text><path d="M4.58329-0.0201565 4.74454 36.6462-4.42204 36.6865-4.58329 0.0201565ZM4.86548 64.1459 5.02673 100.812-4.13984 100.853-4.3011 64.1862ZM5.14767 128.312 5.30892 164.978-3.85765 165.019-4.01891 128.352ZM5.42986 192.478 5.59112 229.144-3.57546 229.185-3.73671 192.518ZM5.71206 256.644 5.87331 293.31-3.29327 293.351-3.45452 256.684ZM5.99425 320.81 6.1555 357.476-3.01108 357.517-3.17233 320.85ZM6.27644 384.976 6.43769 421.642-2.72889 421.683-2.89014 385.016ZM6.55863 449.142 6.71988 485.808-2.44669 485.849-2.60795 449.182ZM6.84082 513.308 7.00208 549.974-2.1645 550.015-2.32576 513.349ZM7.12301 577.474 7.28427 614.141-1.88231 614.181-2.04356 577.515ZM7.40521 641.64 7.56646 678.307-1.60012 678.347-1.76137 641.681ZM7.6874 705.806 7.84865 742.473-1.31793 742.513-1.47918 705.847ZM7.96959 769.972 8.13084 806.639-1.03574 806.679-1.19699 770.013ZM8.25178 834.138 8.41303 870.805-0.753546 870.845-0.914798 834.179ZM8.53397 898.304 8.69522 934.971-0.471354 935.011-0.632607 898.345ZM8.81616 962.471 8.97742 999.137-0.189163 999.177-0.350415 962.511ZM9.09835 1026.64 9.25961 1063.3 0.0930288 1063.34-0.0682235 1026.68ZM9.38055 1090.8 9.5418 1127.47 0.375221 1127.51 0.213968 1090.84ZM9.66274 1154.97 9.82399 1191.63 0.657412 1191.68 0.49616 1155.01ZM9.94493 1219.13 10.1062 1255.8 0.939604 1255.84 0.778352 1219.17ZM10.2271 1283.3 10.3884 1319.97 1.2218 1320.01 1.06054 1283.34ZM10.5093 1347.47 10.6706 1384.13 1.50399 1384.17 1.34274 1347.51ZM10.7915 1411.63 10.9528 1448.3 1.78618 1448.34 1.62493 1411.67ZM11.0737 1475.8 11.2349 1512.47 2.06837 1512.51 1.90712 1475.84ZM11.3559 1539.96 11.5171 1576.63 2.35056 1576.67 2.18931 1540.01ZM11.6381 1604.13 11.7993 1640.8 2.63276 1640.84 2.4715 1604.17ZM11.9203 1668.3 12.0815 1704.96 2.91495 1705 2.75369 1668.34ZM12.2025 1732.46 12.3637 1769.13 3.19714 1769.17 3.03589 1732.5ZM12.4847 1796.63 12.6459 1833.3 3.47933 1833.34 3.31808 1796.67ZM12.7668 1860.8 12.9281 1897.46 3.76152 1897.5 3.60027 1860.84ZM13.049 1924.96 13.2103 1961.63 4.04371 1961.67 3.88246 1925ZM13.3312 1989.13 13.4925 2025.79 4.3259 2025.83 4.16465 1989.17ZM13.6134 2053.29 13.7747 2089.96 4.6081 2090 4.44684 2053.33ZM13.8956 2117.46 14.0569 2154.13 4.89029 2154.17 4.72904 2117.5ZM14.1778 2181.63 14.335 2217.36 5.16837 2217.4 5.01123 2181.67ZM23.4813 2212.72 9.85236 2240.28-4.01845 2212.84Z" fill="#000000" fill-rule="nonzero" fill-opacity="1" transform="matrix(-1 0 0 1 1679.35 1997.5)"/><rect x="1293.5" y="2386.5" width="773" height="743" stroke="#308B16" stroke-width="4.58333" stroke-linecap="butt" stroke-linejoin="miter" stroke-miterlimit="4" stroke-opacity="1" fill="#FFFFFF" fill-opacity="1"/><text fill="#000000" fill-opacity="1" font-family="Arial,Arial_MSFontService,sans-serif" font-style="normal" font-variant="normal" font-weight="400" font-stretch="normal" font-size="83" text-anchor="start" direction="ltr" writing-mode="lr-tb" unicode-bidi="normal" text-decoration="none" transform="matrix(1 0 0 1 1318.73 2488)">•</text><text fill="#000000" fill-opacity="1" font-family="MS Mincho,MS Mincho_MSFontService,sans-serif" font-style="normal" font-variant="normal" font-weight="400" font-stretch="normal" font-size="83" text-anchor="start" direction="ltr" writing-mode="lr-tb" unicode-bidi="normal" text-decoration="none" transform="matrix(1 0 0 1 1359.98 2488)">性別</text><text fill="#000000" fill-opacity="1" font-family="Arial,Arial_MSFontService,sans-serif" font-style="normal" font-variant="normal" font-weight="400" font-stretch="normal" font-size="83" text-anchor="start" direction="ltr" writing-mode="lr-tb" unicode-bidi="normal" text-decoration="none" transform="matrix(1 0 0 1 1318.73 2587)">•</text><text fill="#000000" fill-opacity="1" font-family="MS Mincho,MS Mincho_MSFontService,sans-serif" font-style="normal" font-variant="normal" font-weight="400" font-stretch="normal" font-size="83" text-anchor="start" direction="ltr" writing-mode="lr-tb" unicode-bidi="normal" text-decoration="none" transform="matrix(1 0 0 1 1359.98 2587)">年齢</text><text fill="#000000" fill-opacity="1" font-family="Arial,Arial_MSFontService,sans-serif" font-style="normal" font-variant="normal" font-weight="400" font-stretch="normal" font-size="83" text-anchor="start" direction="ltr" writing-mode="lr-tb" unicode-bidi="normal" text-decoration="none" transform="matrix(1 0 0 1 1318.73 2686)">•</text><text fill="#000000" fill-opacity="1" font-family="MS Mincho,MS Mincho_MSFontService,sans-serif" font-style="normal" font-variant="normal" font-weight="400" font-stretch="normal" font-size="83" text-anchor="start" direction="ltr" writing-mode="lr-tb" unicode-bidi="normal" text-decoration="none" transform="matrix(1 0 0 1 1359.98 2686)">身長</text><text fill="#000000" fill-opacity="1" font-family="Arial,Arial_MSFontService,sans-serif" font-style="normal" font-variant="normal" font-weight="400" font-stretch="normal" font-size="83" text-anchor="start" direction="ltr" writing-mode="lr-tb" unicode-bidi="normal" text-decoration="none" transform="matrix(1 0 0 1 1318.73 2785)">•</text><text fill="#000000" fill-opacity="1" font-family="MS Mincho,MS Mincho_MSFontService,sans-serif" font-style="normal" font-variant="normal" font-weight="400" font-stretch="normal" font-size="83" text-anchor="start" direction="ltr" writing-mode="lr-tb" unicode-bidi="normal" text-decoration="none" transform="matrix(1 0 0 1 1359.98 2785)">体重</text><text fill="#000000" fill-opacity="1" font-family="Arial,Arial_MSFontService,sans-serif" font-style="normal" font-variant="normal" font-weight="400" font-stretch="normal" font-size="83" text-anchor="start" direction="ltr" writing-mode="lr-tb" unicode-bidi="normal" text-decoration="none" transform="matrix(1 0 0 1 1318.73 2884)">•</text><text fill="#000000" fill-opacity="1" font-family="MS Mincho,MS Mincho_MSFontService,sans-serif" font-style="normal" font-variant="normal" font-weight="400" font-stretch="normal" font-size="83" text-anchor="start" direction="ltr" writing-mode="lr-tb" unicode-bidi="normal" text-decoration="none" transform="matrix(1 0 0 1 1359.98 2884)">処方薬剤</text><text fill="#000000" fill-opacity="1" font-family="Arial,Arial_MSFontService,sans-serif" font-style="normal" font-variant="normal" font-weight="400" font-stretch="normal" font-size="83" text-anchor="start" direction="ltr" writing-mode="lr-tb" unicode-bidi="normal" text-decoration="none" transform="matrix(1 0 0 1 1318.73 2983)">•</text><text fill="#000000" fill-opacity="1" font-family="MS Mincho,MS Mincho_MSFontService,sans-serif" font-style="normal" font-variant="normal" font-weight="400" font-stretch="normal" font-size="83" text-anchor="start" direction="ltr" writing-mode="lr-tb" unicode-bidi="normal" text-decoration="none" transform="matrix(1 0 0 1 1359.98 2983)">バイタル</text><text fill="#000000" fill-opacity="1" font-family="Arial,Arial_MSFontService,sans-serif" font-style="normal" font-variant="normal" font-weight="400" font-stretch="normal" font-size="83" text-anchor="start" direction="ltr" writing-mode="lr-tb" unicode-bidi="normal" text-decoration="none" transform="matrix(1 0 0 1 1318.73 3082)">•</text><text fill="#000000" fill-opacity="1" font-family="MS Mincho,MS Mincho_MSFontService,sans-serif" font-style="normal" font-variant="normal" font-weight="400" font-stretch="normal" font-size="83" text-anchor="start" direction="ltr" writing-mode="lr-tb" unicode-bidi="normal" text-decoration="none" transform="matrix(1 0 0 1 1359.98 3082)">血液検査</text></g></svg>